<?xml version="1.0" encoding="UTF-8" standalone="no"?>
<svg width="269px" height="315px" viewBox="0 0 269 315" version="1.1" xmlns="http://www.w3.org/2000/svg" xmlns:xlink="http://www.w3.org/1999/xlink">
    <!-- Generator: Sketch 50.2 (55047) - http://www.bohemiancoding.com/sketch -->
    <title>logo</title>
    <desc>Created with Sketch.</desc>
    <defs></defs>
    <g id="Home" stroke="none" stroke-width="1" fill="none" fill-rule="evenodd">
        <g id="Home-1280" transform="translate(-248.000000, -7312.000000)">
            <g id="fifth-member" transform="translate(0.000000, 7262.000000)">
                <g id="main" transform="translate(248.000000, 0.000000)">
                    <g id="logo" transform="translate(0.000000, 50.000000)">
                        <g id="Group-48">
                            <path d="M96.3506853,242.549534 C96.4862345,241.954053 96.5857262,240.763757 96.6638506,239.41644 L83.9262352,249.29743 C84.391643,249.460439 84.8483702,249.687985 85.3278003,249.795771 C86.2773122,250.009345 87.2341691,250.153725 88.0200872,249.264163 C88.2484508,249.00601 88.7959893,248.759168 89.0724295,248.856974 C89.4804125,249.001353 89.8857245,249.193636 90.3050589,249.246864 C90.7965081,249.309406 91.1664304,249.188979 91.6338414,249.474411 C91.7573714,249.55026 91.8975947,249.646069 92.0358148,249.600826 C92.2014118,249.546933 92.2408078,249.33735 92.2755298,249.167023 C92.3336223,248.884253 92.4544814,248.615455 92.6267557,248.384581 C92.6701581,248.326031 92.7222411,248.266815 92.7930204,248.251513 C92.9345792,248.222238 93.0400805,248.375266 93.1015117,248.505008 C93.256425,248.829695 93.4120061,249.154381 93.5669194,249.479068 C94.1231384,248.890241 94.1004356,247.862953 94.7715041,247.407859 C95.1414265,247.994691 95.3684546,248.670678 95.4265471,249.361303 C95.4652755,249.827042 95.4385663,250.331371 95.7016518,250.7186 C95.738377,250.771827 95.7824472,250.824389 95.844546,250.842353 C96.0161526,250.892254 96.1269958,250.666703 96.1597145,250.492384 C96.4067746,249.19164 96.7987321,247.636737 96.6317996,246.316033 C96.4728799,245.053215 96.0555487,243.84695 96.3506853,242.549534 Z M84.581946,88.2601104 C84.547224,88.2527917 84.5125021,88.2461383 84.4777801,88.2388195 C84.5125021,88.3080151 84.547224,88.3772106 84.581946,88.4464061 C84.581946,88.3845294 84.581946,88.3219872 84.581946,88.2601104 Z M75.8941124,93.5994779 C75.9902655,93.601474 76.1558625,93.6340757 76.1712203,93.6001433 C76.2860699,93.3439867 76.3915712,93.0785153 76.4556733,92.8063906 C76.4763729,92.7152388 76.3668652,92.5934812 76.2493447,92.3393207 C76.1031119,92.6180989 75.9822528,92.7744542 75.939518,92.9501044 C75.8887706,93.1583564 75.9061316,93.3825765 75.8941124,93.5994779 Z M79.5746396,91.2894114 C80.1555646,91.1283987 80.5294933,90.8675847 80.0734338,90.1955896 C79.907169,90.5601969 79.7409043,90.9248041 79.5746396,91.2894114 Z M81.8202152,88.594112 C81.8242216,88.7511327 81.9958281,88.9041613 82.1981503,89.22286 C82.3270222,88.9234562 82.4538908,88.7724236 82.4211721,88.673953 C82.3590732,88.484996 82.2068308,88.3253139 82.0919812,88.1536558 C81.9944927,88.3006963 81.8168765,88.4497328 81.8202152,88.594112 Z M85.3611868,95.295434 C85.4152729,95.3513227 85.6195982,95.3699523 85.637627,95.3380159 C85.8679938,94.9288307 86.1250698,94.5236376 86.2739735,94.0831814 C86.3601107,93.8303515 86.2619544,93.5156449 86.2325743,92.9580885 C86.0175653,93.1590217 85.8012208,93.2681377 85.7444637,93.4324772 C85.5661799,93.9447903 85.4433176,94.475733 85.3124425,95.003349 C85.2904074,95.0945008 85.303762,95.2348879 85.3611868,95.295434 Z M86.5691102,91.2461642 C86.6619246,91.2947341 86.7547391,91.3433041 86.8482212,91.391874 C86.9143265,91.2581403 87.0138183,91.1317254 87.0418629,90.990673 C87.1820862,90.2860761 87.320974,89.5801485 87.4137885,88.8688981 C87.429814,88.7424832 87.2027858,88.4577169 87.1266646,88.4710238 C86.9176652,88.5062869 86.5657715,88.6519967 86.5590942,88.7704276 C86.515024,89.5934553 86.257948,90.4344473 86.5691102,91.2461642 Z M67.8286031,199.060802 C67.8466318,198.748756 67.707744,198.429392 67.7157567,198.116016 C67.74714,196.784002 67.7504787,195.447331 67.8693346,194.12197 C68.0542958,192.051426 68.2345829,189.973564 68.5824701,187.925642 C68.9917886,185.513113 68.8936323,183.089938 68.978434,180.669425 C69.0418683,178.853042 69.0311846,177.032667 69.0198332,175.214288 C69.0111527,173.763178 68.919006,172.313398 68.9236801,170.862953 C68.9290219,169.312042 69.0051431,167.761795 69.0485456,166.211549 C69.0926158,164.663964 68.9677503,163.08777 69.2348422,161.580105 C69.418468,160.546164 69.1613919,159.613355 69.1473696,158.635303 C69.1260023,157.086387 69.0258428,155.538802 68.9904531,153.989887 C68.9730921,153.200126 69.0619002,152.408369 69.0331878,151.619939 C69.0084818,150.940625 69.7042563,150.260646 69.6868954,149.581332 C69.6314738,147.470203 69.616116,145.357743 69.5907423,143.245948 C69.5780554,142.198035 69.6027614,141.148791 69.5586912,140.101543 C69.5406625,139.665079 69.2662255,139.218635 69.3196439,138.803461 C69.5186274,137.251884 69.4364967,135.700307 69.408452,134.150726 C69.3844137,132.800748 69.2234908,131.452766 69.1727434,130.102787 C69.1133154,128.515947 69.1219959,126.927111 69.0759225,125.339606 C69.0465424,124.343589 68.9497216,123.349569 68.9283542,122.354217 C68.9176705,121.864526 69.0558906,121.372838 69.0458747,120.883147 C69.027846,120.002234 68.9477184,119.122653 68.8949677,118.24174 C68.8455557,117.418712 68.7861277,116.595019 68.7520735,115.770661 C68.7260321,115.13659 68.7407221,114.501189 68.7233611,113.867118 C68.6726137,112.066703 68.4242181,110.245663 68.6218662,108.473193 C68.7727731,107.118557 68.5557609,105.796523 68.6832973,104.467835 C68.8402139,102.828433 69.0191655,99.193006 69.2221554,97.5589266 C69.3309953,96.6780142 69.4885796,95.8017591 69.6661957,94.9314921 C69.7656875,94.4457926 69.9980575,94.0379381 70.6096981,94.0425955 C70.7058512,94.0439262 70.827378,93.9281568 70.894151,93.8356743 C71.1545657,93.4783857 71.3976193,93.1091211 71.5992738,92.8137093 C71.8957458,93.1091211 72.157496,93.5655455 72.372505,93.5442546 C72.9480881,93.4890312 72.8819829,92.8849009 72.9647814,92.4677316 C73.1444007,91.5661936 73.2612535,90.6526794 73.43286,89.7491453 C73.6144826,88.7883918 74.4197648,88.8283123 74.9432651,89.4417574 C75.4487366,88.5335659 75.9842559,87.6406773 76.5471522,86.7657529 C77.1728152,87.6287011 77.6402261,88.6047575 77.9200049,89.6320451 C77.9801006,89.8516079 78.0448704,90.0937923 78.2331702,90.2228686 C78.5683706,90.4524115 79.0411234,90.1463543 79.1933658,89.7704362 C79.3456082,89.3951835 79.3135572,88.9693647 79.4310776,88.5808052 C79.5479304,88.1929109 79.9312073,87.8163275 80.3164875,87.9460691 C80.8279686,88.119058 80.7685406,88.9294442 81.2092423,89.2408242 C81.5557941,88.5521955 81.9030137,87.8635668 82.2495655,87.1756034 C82.4639068,86.7497847 82.8371678,86.2494477 83.2958982,86.3825161 C83.5663288,86.4616917 83.7212422,86.7371432 83.8474431,86.9886424 L84.4777801,88.2388195 C84.4490678,88.2328314 84.4203554,88.2275087 84.3923107,88.2215206 C84.2146946,88.7191963 84.0370784,89.2175372 83.8441045,89.7577947 C83.8053761,89.6080928 83.7726574,89.4790165 83.7399386,89.3492749 C83.6865202,89.3539323 83.6324341,89.3585897 83.5790157,89.3632471 C83.5997153,89.5907939 83.5843575,89.8296516 83.6477919,90.0452223 C83.8487786,90.729859 84.1886531,91.3872166 83.6905266,92.1084471 C83.5689998,92.2840973 83.6724979,92.6141068 83.6724979,92.8735901 C83.7479514,92.8955464 83.8234048,92.9168373 83.8995261,92.9394589 C84.1011805,92.5143056 84.4263649,92.104455 84.4804511,91.6613374 C84.5906265,90.7511499 84.5579077,89.8236635 84.5812783,88.9028306 C84.5852847,88.7504673 84.5826137,88.5981041 84.581946,88.4464061 C84.66608,88.6140723 84.7508817,88.781073 84.8350156,88.9487392 C84.9071305,89.092453 84.9992772,89.2514696 85.1568614,89.2847367 C85.3271326,89.3199998 85.4840491,89.1902582 85.6055759,89.0658393 C86.5390623,88.1057512 87.4672069,86.7584341 88.0040617,85.5421894 C88.2985306,85.6446521 88.4761467,85.8209676 88.72521,86.01059 C88.9288676,86.1656146 89.1044805,86.3758626 89.330841,86.4789906 C90.8051886,87.1496551 90.883313,88.6400206 90.3351067,89.884875 C90.1461392,90.3153511 90.2743433,90.5362446 90.5194002,90.9048439 C90.7844889,91.3027182 90.932725,91.9148326 90.8392428,92.3732531 C90.749767,92.8070559 90.6075405,93.2109184 90.9841402,93.4524374 C91.17244,93.5721989 91.5717425,93.3626163 91.8755596,93.3053969 C91.9142879,93.2980781 91.9563549,93.311385 92.0571821,93.3206997 C91.8341603,94.1250979 91.9076106,94.8603005 92.6694904,95.4012234 C93.231719,95.3526534 93.4874595,95.0406081 93.379955,94.5628928 C93.6797657,94.5615621 93.943519,94.5276297 94.1939178,94.5695462 C94.3561761,94.5968252 94.5798656,94.6979572 94.6392936,94.8283641 C95.1187236,95.873616 95.7163419,96.8982423 95.9787597,98.0000482 C96.2251521,99.0299972 96.5530075,100.075249 96.3246438,101.221633 C96.1376795,102.159765 96.3152956,105.163783 96.2999378,106.139174 C96.2732286,107.817166 96.2091266,109.495158 96.1890947,111.172484 C96.1810819,111.880408 96.2538645,112.588997 96.2732286,113.297586 C96.301941,114.369451 96.3226406,115.441317 96.3333243,116.513848 C96.3500176,118.083389 96.3159633,119.654261 96.3753913,121.221806 C96.4301452,122.678904 96.6237868,124.131345 96.6738666,125.588444 C96.7332945,127.292384 96.6865534,128.99832 96.7166013,130.702926 C96.7646778,133.40754 96.8327863,136.112154 96.9035656,138.816768 C96.9563163,140.838742 97.0070638,142.860715 97.0952041,144.881358 C97.1860154,146.963212 96.4555189,149.047728 96.5636911,151.128917 C96.6304641,152.423672 96.6598442,153.720423 96.7439782,155.014513 C96.7907193,155.736409 96.9309426,156.452316 96.9977156,157.173547 C97.0424535,157.653258 97.0117379,158.138958 97.048463,158.619334 C97.1319293,159.708499 97.2968585,160.795002 97.3188936,161.884166 C97.354951,163.745127 97.4951743,165.603427 97.2855071,167.472372 C97.1512934,168.665329 97.3355869,169.89222 97.2447756,171.093827 C97.0765077,173.311411 97.2855071,175.519015 97.3108809,177.729945 C97.3269064,179.12184 97.2648075,189.607626 97.2214051,195.431362 L68.4776365,230.632598 C68.3674611,228.916016 68.2592889,227.199434 68.1925159,225.481522 C68.1591294,224.633877 68.3654579,223.779578 68.4375727,222.92661 C68.5370645,221.738975 68.6552527,220.55134 68.6899746,219.361043 C68.7280352,218.031025 68.6659364,216.698346 68.6799587,215.366997 C68.6886392,214.552619 68.8195142,213.73691 68.7921373,212.925858 C68.7146806,210.647728 68.5651092,208.372259 68.4849816,206.093464 C68.4596078,205.390198 68.5984956,204.682939 68.5978279,203.977012 C68.5978279,203.380865 68.4435823,202.782723 68.4649497,202.189904 C68.5023425,201.143987 67.7678397,200.106053 67.8286031,199.060802 Z M132.665175,247.405198 C132.60508,247.376588 132.345333,247.580183 132.319291,247.705267 C132.196429,248.297421 132.651821,248.282118 133.011727,248.330023 C133.500505,247.747849 133.03443,247.577521 132.665175,247.405198 Z M232.028725,164.431095 C232.140903,163.636011 232.26243,162.999944 232.309839,162.358555 C232.345229,161.88084 232.231715,161.390483 232.281794,160.915429 C232.336548,160.390474 232.432033,159.90544 231.729582,159.743762 C232.355245,159.105034 232.361254,158.624657 231.770981,158.380477 C231.670821,158.633972 231.571997,158.888132 231.471838,159.142293 C231.400391,159.132313 231.328944,159.121667 231.256161,159.111022 C231.371678,158.582075 231.323602,157.903427 231.640774,157.561441 C232.067453,157.102355 231.85645,156.735752 231.794351,156.327897 C231.760297,156.101016 231.597371,155.89476 231.503221,155.674532 C231.335621,155.281315 231.176034,154.885437 231.013107,154.490224 L230.850849,154.543451 C230.782073,155.606002 230.663885,156.669218 230.664552,157.732434 C230.664552,158.380477 230.828814,159.031181 230.955015,159.673901 C231.026462,160.037843 231.105254,160.426403 231.291551,160.737782 C231.998009,161.912776 232.012031,162.403798 231.264174,163.014582 C231.485193,163.423767 231.706211,163.833618 232.028725,164.431095 Z M231.252155,145.812837 C231.187385,145.21536 231.121947,144.617883 231.039817,143.86272 C230.516316,144.664457 230.70929,145.253284 231.252155,145.812837 Z M231.111264,143.713683 C231.306909,143.283207 231.672157,142.915939 231.062519,142.484132 C230.683917,143.004429 230.689258,143.243287 231.111264,143.713683 Z M230.849514,152.091667 C230.810118,152.119611 230.801437,152.211428 230.804776,152.27264 C230.833488,152.85814 230.867542,153.442976 230.901597,154.05509 C231.336289,153.972588 231.578675,153.927344 231.778326,153.88942 C232.248408,152.882758 232.317184,151.904706 231.682173,150.937964 C231.56532,151.181479 231.584684,151.47556 231.45648,151.673167 C231.33295,151.862789 231.051168,151.947287 230.849514,152.091667 Z M206.701062,194.966954 C206.281728,195.820587 205.827004,196.515204 206.312443,197.381479 C206.946119,197.021529 207.162464,195.935691 206.701062,194.966954 Z M205.899119,142.019723 C205.899119,141.239277 205.890438,140.66908 205.900454,140.099547 C205.911138,139.559955 206.312443,138.9851 205.773585,138.397603 C205.445062,139.238595 205.134568,139.971136 204.871482,140.720311 C204.575678,141.565295 205.441724,142.007747 205.563918,142.715005 C206.205607,142.473486 206.21629,142.389653 205.899119,142.019723 Z M205.089162,147.457561 C205.127891,148.249983 205.167954,149.039079 205.206683,149.827509 L205.382963,149.836158 C205.539212,149.596635 205.686113,149.350459 205.854381,149.12025 C206.263031,148.560698 205.788275,147.442258 205.089162,147.457561 Z M204.547633,145.685756 C204.497554,145.57664 204.288554,145.454217 204.177043,145.474178 C203.886581,145.525409 203.670904,146.230671 203.851191,146.468863 C204.040826,146.719697 204.242481,146.961882 204.461496,147.236003 C204.894185,146.797542 204.802706,146.239321 204.547633,145.685756 Z M204.739272,148.968552 C204.542959,148.868086 204.372688,148.732356 204.326615,148.765623 C204.15434,148.890707 204.022798,149.07168 203.875897,149.231362 C203.989411,149.33316 204.183053,149.536754 204.203085,149.520786 C204.376694,149.383726 204.518921,149.20741 204.739272,148.968552 Z M203.833162,131.883242 C203.935993,131.84066 204.074881,131.720898 204.078887,131.628416 C204.10159,131.085497 204.090238,130.541248 204.090238,129.939779 C203.646198,130.219222 203.347055,131.439459 203.576754,131.751504 C203.630172,131.824692 203.773734,131.907859 203.833162,131.883242 Z M203.624163,128.931786 C204.486202,128.170635 204.567665,127.166634 203.803782,126.383527 C203.741016,127.279077 203.686929,128.041559 203.624163,128.931786 Z M204.400733,120.659592 C204.608397,120.807298 204.814725,120.956334 205.021722,121.104706 C205.080482,121.079423 205.139242,121.05414 205.197335,121.028857 C205.178638,120.813951 205.160609,120.598381 205.142581,120.38281 C204.904869,120.403435 204.667825,120.424061 204.430113,120.445352 C204.420765,120.516543 204.410749,120.587735 204.400733,120.659592 Z M205.665413,138.006382 C206.052029,137.384287 206.089422,136.547953 205.665413,135.999711 L205.665413,138.006382 Z M232.781256,230.293274 C232.629682,231.218764 232.539538,232.153569 232.43604,233.085713 C232.424021,233.18751 232.458075,233.336547 232.508822,233.424372 C233.696046,235.459652 234.450581,239.914781 233.004278,241.944073 C232.583608,241.604749 232.196993,241.200886 231.826402,240.777063 C231.828406,240.319974 231.726911,239.868872 231.598707,239.439727 C231.527259,239.2022 231.328944,239.002597 231.131296,238.699867 C230.99775,239.042518 230.898258,239.292021 230.811453,239.516906 C230.586428,239.209518 230.368748,238.90213 230.159749,238.600731 C228.619964,239.542189 229.367153,242.348601 227.8267,243.289394 C227.22975,242.848272 226.737633,242.266764 226.402433,241.605414 C226.051207,241.640677 225.724687,241.862901 225.563096,242.175612 C224.234314,242.010607 223.869065,239.78637 222.529599,239.780382 C221.850518,240.972009 220.798176,244.298052 219.056068,243.720535 C218.088528,243.399175 217.920928,241.716526 216.627535,242.494976 C216.679618,242.797706 216.848553,243.360585 216.935358,243.613415 C217.040192,243.675292 217.151035,243.723862 217.271226,243.75979 C217.366712,243.796384 217.466871,243.986672 217.460194,244.101111 C217.444168,244.39253 217.368715,244.679958 217.295932,245.091805 C217.080256,244.616085 216.924007,244.240833 216.737042,243.880883 C216.68763,243.784408 216.510682,243.657993 216.448583,243.683276 C216.333066,243.730515 216.239584,243.86691 216.170808,243.986007 C215.847626,244.54689 216.30235,245.13106 216.131411,245.6966 C216.073319,245.888884 215.992524,246.073184 215.921744,246.26081 C215.844955,246.255487 215.767499,246.25083 215.69071,246.246173 C215.579867,245.873581 215.469691,245.501655 215.358848,245.128398 C215.331471,245.147028 215.303426,245.166323 215.276049,245.184287 C215.121136,244.930792 214.822661,244.668647 214.838019,244.425132 C214.886763,243.65267 214.173627,243.595451 213.805041,243.226852 C213.789015,243.210218 213.478521,243.457725 213.328281,243.605431 C213.079218,243.849612 212.849519,244.113752 212.547037,244.437774 C212.277275,243.835639 212.677245,243.09711 211.886653,243.022592 C211.524075,242.987994 211.098731,243.07715 210.790908,243.260119 C210.662036,243.336633 210.765534,243.803038 210.768205,244.091796 C210.768873,244.259462 210.78156,244.427128 210.694087,244.598121 C210.340858,243.918807 209.994306,243.23417 209.62839,242.562175 C209.564956,242.446406 209.403365,242.388521 209.305877,242.286059 C209.124922,242.097101 208.945302,241.903487 208.787718,241.695235 C208.652837,241.518254 208.546,241.153647 208.431818,241.154978 C207.880273,241.163627 206.064048,241.568155 205.913809,241.238811 C204.888176,238.991952 206.491395,235.732442 206.055367,233.347192 C205.901122,232.507531 205.591963,231.691822 205.488465,230.848834 C205.319529,229.469581 205.272788,228.075024 205.151929,226.689117 C205.030402,225.279924 204.881498,223.872726 204.743278,222.464863 C204.721911,222.244635 204.69854,222.025072 204.67517,221.805509 C204.682515,221.977833 204.682515,222.034387 204.667825,221.887346 C204.655806,221.778895 204.647793,221.636512 204.641116,221.480157 C204.583691,220.93125 204.528937,220.382343 204.498221,219.830775 C204.492212,219.724985 204.539621,219.609881 204.591036,219.497438 C204.591036,219.828113 204.605058,220.264578 204.622419,220.679751 C204.619748,220.299175 204.620416,219.872691 204.623087,219.419594 C204.683182,219.286525 204.735933,219.15878 204.701879,219.054321 C204.668492,218.953854 204.644454,218.933894 204.627093,218.973149 C204.643119,217.28185 204.67517,215.416232 204.601719,214.699659 C204.435455,213.080217 204.485534,211.438819 204.424103,209.808067 C204.397394,209.10347 204.294564,208.400869 204.292561,207.696937 C204.292561,207.498666 204.527601,207.300394 204.685853,207.052887 C203.97205,206.569848 204.180382,205.98967 204.544295,205.598449 C204.412084,205.180615 204.282545,204.940427 204.264516,204.690923 C204.159682,203.229833 204.067536,201.768077 203.998092,200.305656 C203.961366,199.544505 203.958696,198.781358 203.97806,198.018876 C203.998092,197.181211 204.055516,196.342881 204.108267,195.505881 C204.14566,194.907738 204.237139,194.310261 204.235136,193.71345 C204.2338,193.321564 204.104261,192.930343 204.042162,192.53646 C204.024133,192.420691 203.991414,192.264336 204.048171,192.185825 C204.479525,191.59234 204.223117,191.21243 203.817805,190.990206 C203.972718,190.265649 204.110938,189.600307 204.261845,188.938292 C204.281877,188.852463 204.362004,188.747339 204.434119,188.698104 C204.771991,188.471888 204.832086,188.275612 204.528937,187.922315 C204.360001,187.72604 204.399397,187.35744 204.325947,187.070678 C204.092242,186.171801 203.819808,185.282239 204.219778,184.348765 C204.294564,184.173115 204.201082,183.925608 204.187059,183.710037 C204.158347,183.253612 204.142321,182.795857 204.099587,182.340764 C204.074881,182.068639 204.012782,181.799841 203.964037,181.529712 C203.915961,181.258918 203.838504,180.990785 203.817137,180.71733 C203.757709,179.943537 203.709632,179.168414 203.684259,178.392626 C203.676914,178.188366 203.801111,177.981444 203.809124,177.774523 C203.827821,177.249569 203.837836,176.723283 203.809792,176.200325 C203.762383,175.33538 203.657549,174.472432 203.624831,173.606157 C203.59278,172.767827 203.642192,171.926169 203.618821,171.087173 C203.587438,169.88357 203.556054,168.677971 203.458566,167.47836 C203.407818,166.849612 203.214177,166.23284 203.09265,165.608749 C203.068612,165.485661 203.024541,165.300696 203.085973,165.237489 C203.676246,164.630697 203.544035,163.946726 203.394464,163.221503 C203.333033,162.922099 203.479266,162.580114 203.650204,162.270065 C203.421173,162.955367 203.582764,163.567481 203.818472,164.170946 C203.903942,164.178265 203.988743,164.184918 204.074213,164.192237 C204.148331,163.617382 204.21043,163.041196 204.301909,162.469002 C204.404071,161.828943 204.541624,161.194872 204.647793,160.555479 C204.773326,159.807635 205.001022,159.049145 204.952945,158.30995 C204.924233,157.868829 204.452148,157.456317 204.056184,156.839545 C203.944006,157.239416 203.831159,157.498899 203.803782,157.767697 C203.75437,158.254727 203.993418,158.787001 203.447882,159.178221 C203.336371,159.258062 203.329026,159.669909 203.431189,159.825599 C203.829156,160.433721 203.81313,161.049162 203.565403,161.760413 C203.284956,160.503582 202.955765,159.305967 202.770136,158.086396 C202.684667,157.524847 202.891663,156.922048 202.944414,156.335882 C203.001839,155.706468 203.033222,155.073728 203.079963,154.442319 C203.087976,154.339191 203.085305,154.207453 203.145401,154.140919 C203.650872,153.586024 203.399138,153.025806 203.286959,152.399054 C203.173445,151.764318 203.353732,151.077686 203.410489,150.413675 C203.421173,150.290586 203.508646,150.150199 203.47192,150.050398 C203.216848,149.351789 203.103334,148.684451 203.451889,147.955902 C203.562064,147.725029 203.343049,147.335804 203.266927,147.020432 C203.212841,146.798873 203.091982,146.581972 203.089979,146.361743 C203.055925,143.899314 203.015861,141.436884 203.028548,138.975119 C203.034557,137.715628 203.152078,136.456136 203.193477,135.195978 C203.202158,134.903893 203.088644,134.610478 203.057928,134.314401 C203.033222,134.075543 203.046577,133.832693 203.045909,133.591839 C203.043906,132.888573 203.034557,132.185307 203.04858,131.482041 C203.052586,131.267135 203.126704,131.054226 203.163429,130.839986 C203.226864,130.468725 203.443208,130.028934 203.316339,129.738845 C202.923714,128.841299 203.148739,127.919801 203.046577,127.016932 C203.007848,126.680935 202.911027,126.35026 202.834238,126.018254 C202.631916,125.141334 202.310738,124.271067 202.253981,123.384832 C202.193218,122.428736 202.224601,121.408767 202.511057,120.50989 C202.70737,119.896445 202.739421,119.392116 202.637926,118.793308 C202.517067,118.086715 202.458974,117.361493 202.458307,116.644255 C202.457639,116.241057 202.692012,115.839191 202.703363,115.433333 C202.718721,114.914366 202.622568,114.391407 202.561137,113.872441 C202.520405,113.528459 202.449626,113.189135 202.404888,112.846484 C202.356812,112.479215 202.33077,112.109285 202.28069,111.742017 C202.263329,111.618263 202.165841,111.499832 202.165173,111.37874 C202.153154,109.435277 202.151818,107.491814 202.147144,105.54835 C202.145141,104.783873 202.185205,103.552325 202.263329,102.766556 C202.2867,102.055971 202.310738,101.344721 202.334109,100.633471 L202.492361,95.8010938 C202.535763,94.4670836 202.579833,93.132408 202.623904,91.7977325 L205.766908,87.5249078 L211.23428,103.213001 L228.463715,87.9819976 L206.080741,153.633263 L230.880229,135.820734 C230.946334,135.935838 231.048497,136.04695 231.190724,136.158728 L231.190724,135.597179 L231.679502,135.24721 C231.671489,135.442155 231.666815,135.6371 231.658802,135.83138 C231.606052,136.969114 231.47117,138.104187 231.429771,139.241256 C231.407736,139.836072 231.507228,140.434214 231.551298,141.031025 C231.586687,141.52737 231.649454,142.02305 231.646783,142.51873 C231.64478,142.800834 231.534605,143.081609 231.472506,143.362383 C231.417084,143.612551 231.232123,143.865381 231.728914,144.094924 C232.795946,144.589938 232.984914,146.041714 231.983319,146.657821 C231.229452,147.122229 231.708214,147.507462 231.736927,147.922635 C231.763636,148.308533 231.74761,148.699089 231.726911,149.086318 C231.713556,149.34447 231.65947,149.599962 231.623413,149.857449 C231.685511,149.865433 231.746943,149.873417 231.808374,149.881401 C231.883827,149.628571 231.959281,149.375076 232.034066,149.122246 C232.084814,149.120916 232.136229,149.12025 232.187644,149.119585 C232.217024,149.329168 232.272446,149.539416 232.271778,149.748998 C232.271111,150.204092 232.217692,150.659851 232.227708,151.11428 C232.267104,152.852152 232.324529,154.590025 232.373273,156.327897 C232.420014,157.983268 232.452065,159.639969 232.514832,161.294674 C232.564912,162.627353 232.659062,163.958037 232.716486,165.290716 C232.757886,166.258123 232.986249,167.28408 232.743863,168.180295 C232.442717,169.291416 232.519506,170.403867 232.380618,171.506339 C232.267772,172.397231 232.014702,173.403893 232.729173,174.24422 C232.794611,174.3214 232.685771,174.564915 232.629014,174.72127 C232.534196,174.981419 232.328535,175.231587 232.323861,175.489074 C232.290475,177.475785 232.281127,179.463826 232.296484,181.450536 C232.299823,181.869702 232.432701,182.287536 232.505484,182.706036 C232.439379,182.683415 232.372606,182.661458 232.305833,182.638837 C232.1596,182.850415 231.90052,183.05401 231.88316,183.275569 C231.763636,184.797205 231.646783,186.321503 231.633429,187.846466 C231.627419,188.46723 231.924559,189.084002 232.004686,189.71275 C232.102843,190.479889 231.987325,191.295598 232.194322,192.024813 C232.660397,193.662884 232.055434,195.294302 232.304497,196.921062 C232.417343,197.658926 232.526851,198.427396 232.442049,199.159272 C232.195657,201.284374 232.958872,203.338949 232.782592,205.458728 C232.711145,206.325668 232.844023,207.213234 232.92415,208.087493 C233.093086,209.941135 233.302753,211.79145 233.467015,213.646423 C233.526443,214.317753 233.491721,218.466159 233.51843,219.140815 C233.529781,219.455522 233.548478,218.809475 233.567174,217.84473 C233.549813,218.756248 233.535791,219.542682 233.534456,219.905293 C233.531117,220.632511 233.638621,221.358399 233.666666,222.086949 C233.702723,223.041049 233.852963,224.022428 233.683359,224.943261 C233.55382,225.648523 233.652644,226.216725 233.905046,226.818194 C233.945109,226.914668 233.970483,227.078342 233.956461,227.18147 C233.867653,227.8528 233.796206,228.528122 233.657318,229.189472 C233.613915,229.395062 233.382881,229.564059 233.231974,229.746363 C233.079731,229.929997 232.813975,230.091675 232.781256,230.293274 Z M140.620509,231.629945 C140.538378,231.196808 140.457583,230.768328 140.366772,230.289947 C139.821237,230.512171 139.295733,230.696471 139.419263,231.360482 C139.507403,231.836201 139.37319,232.489567 140.01421,232.596021 C140.082319,232.87613 140.140411,233.113657 140.197836,233.35185 L140.458251,233.369148 C140.531701,233.031155 140.605151,232.693161 140.678602,232.355168 C140.728014,232.347849 140.777426,232.34053 140.826838,232.333877 C140.851544,232.791632 140.829509,233.257371 140.912975,233.704481 C141.001783,234.181531 141.190083,234.639286 141.363025,235.194181 C141.945285,234.323249 141.338319,231.840858 140.620509,231.629945 Z M139.705052,228.775629 C139.786515,228.953941 139.89669,229.191468 140.051603,229.250018 C140.342734,229.359799 140.675931,229.359799 141.103946,229.421676 C141.41444,228.070367 140.814151,226.764966 140.54372,225.394362 C140.308679,225.426299 140.086325,225.397689 139.944099,225.490837 C139.799869,225.586646 139.77316,225.860102 139.628263,225.953915 C139.182887,226.242008 138.840341,226.929306 139.159516,227.204092 C139.691029,227.659186 139.47602,228.275957 139.705052,228.775629 Z M136.640839,218.102217 C136.489264,218.158771 136.259565,218.171412 136.206147,218.275871 C135.875621,218.919922 136.077275,219.539355 136.307642,220.148143 C136.377753,220.152135 136.447197,220.156127 136.516641,220.159454 C136.556037,219.504757 136.595433,218.850726 136.640839,218.102217 Z M133.469122,246.254157 C133.39634,245.613433 133.350266,245.205578 133.303525,244.797058 C133.227404,244.787078 133.150615,244.778429 133.073826,244.768449 C133.020408,245.059868 132.904223,245.359937 132.936941,245.640712 C132.957641,245.815696 133.205369,245.964733 133.469122,246.254157 Z M128.208078,243.276752 C128.226775,243.200903 128.047155,243.075819 127.957012,242.973357 C127.848172,243.12705 127.705945,243.269434 127.643847,243.440426 C127.613131,243.524925 127.730651,243.662651 127.843498,243.917476 C128.023117,243.618738 128.162005,243.459056 128.208078,243.276752 Z M122.123724,233.426368 C121.985503,232.728424 121.847951,232.031146 121.694373,231.257354 C121.262352,231.65922 121.437965,232.919377 121.881338,233.474272 C121.962133,233.45897 122.042928,233.442336 122.123724,233.426368 Z M121.302416,230.194803 C121.407917,229.952619 121.605565,229.708438 121.598888,229.469581 C121.587536,229.064387 121.449316,228.663186 121.361844,228.259989 C121.28639,227.912681 121.216279,227.563376 121.129474,227.218064 C120.919139,226.376407 120.659392,225.544064 120.503143,224.693092 C120.418341,224.23068 120.529185,223.735 120.503811,223.257285 C120.493127,223.056351 120.355575,222.863402 120.276115,222.666461 C120.121869,222.794872 119.852774,222.909311 119.836749,223.052359 C119.798688,223.394345 119.880151,223.748972 119.913538,224.098942 C119.964285,224.094285 120.014365,224.089627 120.065112,224.085635 C119.930231,224.822834 119.790675,225.560698 119.668481,226.299892 C119.653123,226.39171 119.749276,226.496168 119.766637,226.598631 C119.81872,226.896704 119.856781,227.196108 119.918879,227.625919 C120.154588,227.741023 120.326862,228.266643 120.157259,228.739701 C120.073125,228.975232 120.048419,229.231388 119.997004,229.47823 C120.161933,229.280623 120.326862,229.082352 120.472428,228.908032 C120.667405,229.299253 120.893765,229.75102 121.120126,230.202122 C121.180889,230.19946 121.241652,230.197464 121.302416,230.194803 Z M116.928785,232.187502 C116.848657,231.888098 116.660358,231.617304 116.513457,231.335864 L116.261055,231.409717 C116.282422,231.778982 116.304458,232.147581 116.326493,232.516846 C116.393266,232.536806 116.459371,232.556766 116.526144,232.576726 C116.669038,232.444323 116.952823,232.275327 116.928785,232.187502 Z M143.974516,240.428424 C143.616613,240.574134 143.343512,240.685246 143.014321,240.819645 C143.064401,240.85757 143.00564,240.836944 143.000299,240.806338 C142.836037,239.848912 142.321217,239.421097 141.322961,239.655297 C141.128652,239.701871 140.906965,239.634006 140.661908,239.616042 C140.636535,239.767075 140.569094,239.90347 140.602481,240.007928 C140.864898,240.812992 140.911639,241.594103 140.406836,242.329971 C140.175801,242.665303 139.994846,243.089791 139.676339,243.296047 C139.303078,243.538897 139.235637,243.82699 139.188896,244.194924 C139.169532,244.343961 139.078721,244.484348 139.020628,244.628727 L138.861709,244.587476 C138.736843,243.922134 138.611978,243.256127 138.487112,242.589454 C138.438368,242.570825 138.389624,242.552861 138.340879,242.534231 C138.147238,242.988659 137.962277,243.44708 137.755948,243.89552 C137.67582,244.06984 137.585677,244.302044 137.436773,244.370574 C136.728312,244.697922 136.323,245.524277 136.463891,246.288754 C136.52599,246.622756 136.421824,246.986698 136.393111,247.336668 C136.305639,247.343321 136.217498,247.349975 136.130026,247.356628 C136.062585,247.175655 135.943061,246.997343 135.937052,246.813709 C135.914349,246.210909 135.929039,245.606114 135.939055,245.002649 C135.94039,244.89819 135.949071,244.749154 136.014508,244.699253 C136.974036,243.977357 136.268914,243.210218 136.176767,242.461709 C136.083952,242.445741 135.991138,242.429107 135.898323,242.413804 C135.761439,243.057855 135.622551,243.700575 135.488337,244.345291 C135.385507,244.83964 135.288018,245.33532 135.16983,245.920155 C134.529477,245.474376 134.796569,244.980693 134.729128,244.566185 C134.691736,244.340634 134.653007,244.115748 134.614947,243.890197 C134.339842,243.9727 134.032686,244.005302 133.801652,244.155003 C133.656086,244.248817 133.52855,244.535579 133.559933,244.705241 C133.652748,245.203582 133.828361,245.68662 133.983942,246.218228 C133.53456,246.491684 133.088516,246.763808 132.540978,247.097145 C132.510262,246.731207 132.390738,246.433799 132.486224,246.244177 C132.812744,245.595468 132.348671,245.141705 132.146349,244.636711 C132.073567,244.452411 131.823836,244.287406 131.618175,244.216215 C131.188825,244.065848 130.716072,243.849612 130.298741,243.911488 C129.896767,243.971369 129.541535,244.346622 129.091485,244.630057 C128.35164,243.601439 126.897325,244.600782 125.976525,244.867584 C125.894394,244.063852 125.814267,243.280744 125.734139,242.496307 C125.688733,242.488322 125.643328,242.480338 125.59859,242.472354 C125.334837,243.041887 125.071083,243.612085 124.744563,244.316682 C124.636391,244.288737 124.404021,244.204904 124.164974,244.177625 C124.004051,244.158996 123.809074,244.17696 123.672857,244.25547 C123.43381,244.393196 123.228149,244.589472 122.881597,244.861596 L122.881597,243.580814 C122.360768,244.025262 122.028906,243.981349 121.60423,243.63138 C121.317106,243.394518 120.825657,243.402502 120.366258,243.285402 C120.033729,242.9015 119.637765,242.445075 119.17169,241.906148 C118.166088,242.091779 118.588094,240.810331 117.917025,240.441066 C117.752764,240.729824 117.593176,241.008602 117.403541,241.341273 C117.237944,240.278722 116.572885,239.391822 116.788562,238.340582 C116.862012,238.279371 116.935462,238.218824 117.008245,238.157613 C117.173174,238.396471 117.325417,238.644643 117.50971,238.866867 C117.577818,238.948704 117.740077,239.025884 117.826882,238.999936 C117.921032,238.971326 118.046565,238.81364 118.037884,238.721823 C117.993146,238.197534 117.901,237.677902 117.846246,237.153612 C117.799505,236.708499 117.791492,236.259393 117.745419,235.814279 C117.718042,235.552135 117.64793,235.294647 117.596515,235.035164 C117.42157,235.09571 117.15381,235.107021 117.089708,235.226783 C116.938801,235.510218 116.797242,235.848212 116.808594,236.158261 C116.829293,236.732451 116.962172,237.302649 117.047641,237.875508 C116.969517,237.890811 116.891392,237.906114 116.813935,237.921417 C116.721121,237.514228 116.622297,237.107704 116.538163,236.699184 C116.429323,236.164249 116.301787,235.630645 116.235681,235.089722 C116.088781,233.880796 115.973264,232.667213 115.849066,231.45496 C115.842388,231.394414 115.852404,231.305258 115.891133,231.272657 C116.635652,230.653223 116.078765,230.102321 115.80366,229.538111 C115.775615,229.480891 115.70083,229.435648 115.69482,229.379759 C115.619367,228.604636 115.552594,227.828848 115.48315,227.053059 L115.636728,226.998501 C115.859082,227.372423 116.081436,227.747011 116.334505,228.173495 C116.439339,227.896047 116.526812,227.663178 116.685064,227.242682 C116.95082,228.279949 117.169836,229.134248 117.388851,229.989212 C117.445608,229.991874 117.501697,229.995201 117.558454,229.997862 C117.593176,229.660534 117.661952,229.32254 117.655275,228.985877 C117.643924,228.417675 117.433589,227.836167 117.860936,227.314539 C117.927709,227.232702 117.922367,227.052394 117.888313,226.935294 C117.710697,226.325841 117.495688,225.727033 117.330758,225.114253 C117.271998,224.894691 117.328755,224.646518 117.308723,224.412983 C117.282682,224.101603 117.244621,223.790889 117.206561,223.480174 L141.8705,204.346942 C141.965985,204.990327 141.916573,205.669641 141.949292,206.32966 C141.978004,206.900523 142.030755,207.470056 142.043442,208.04225 C142.050787,208.36361 142.000039,208.686301 141.975333,209.008991 C141.919912,209.004999 141.865158,209.001007 141.810404,208.997015 C141.946621,210.205941 142.101534,211.413536 142.296511,212.623793 C142.325891,212.791459 142.371965,212.957794 142.379977,213.126126 C142.433396,214.353681 142.502172,215.581237 142.516862,216.808793 C142.524875,217.468812 142.427386,218.130161 142.393332,218.790846 C142.383316,218.979803 142.410693,219.174748 142.450089,219.360378 C142.618357,220.16278 142.824018,220.956533 142.960235,221.762927 C143.028343,222.166124 142.087512,222.590612 142.110215,223.003789 C142.17031,224.102269 142.233745,225.201413 142.321885,226.297896 C142.369294,226.890051 142.486814,227.476217 142.542904,228.06704 C142.613683,228.81555 142.635718,229.568716 142.713175,230.315895 C142.778612,230.94797 142.916832,231.573391 142.978931,232.206131 C143.065736,233.087044 143.064401,233.978602 143.190602,234.853526 C143.282748,235.488262 143.554514,236.095719 143.682051,236.727794 C143.781543,237.220146 143.794229,237.731129 143.822274,238.235458 C143.838967,238.533531 143.786217,238.836262 143.809587,239.133669 C143.844977,239.575456 143.919763,240.014582 143.974516,240.428424 Z M204.627093,218.973149 C204.601052,219.03303 204.591036,219.229971 204.591036,219.497438 C204.602387,219.470825 204.611735,219.444876 204.623087,219.419594 C204.623755,219.273884 204.62509,219.124182 204.627093,218.973149 Z M115.222735,154.778982 C115.250112,155.1549 115.318888,155.528157 115.329572,155.904075 C115.348268,156.536149 115.334914,157.168889 115.334914,157.801629 L115.602006,157.856853 C115.653421,157.616664 115.704168,157.376476 115.755584,157.136288 C115.939209,156.273339 116.142867,155.413718 116.29778,154.546112 C116.359879,154.194812 116.382582,153.806918 116.291103,153.471585 C116.244362,153.302589 115.8918,153.105647 115.694152,153.121616 C115.505185,153.136918 115.214722,153.391744 115.184675,153.576044 C115.121908,153.965269 115.192687,154.377781 115.222735,154.778982 Z M116.625636,152.924674 C116.452026,152.469581 118.049903,152.093663 117.875626,151.635242 C117.481665,152.385082 115.850401,152.72108 116.625636,152.924674 Z M118.058584,167.11974 C118.113338,167.893533 118.182114,168.665995 118.254897,169.534266 C118.402465,169.410512 118.462561,169.382568 118.461225,169.35795 C118.421161,168.473711 120.177959,167.817019 119.685842,166.830317 C119.654458,166.767109 119.823394,166.62273 119.860787,166.503634 C119.995001,166.081807 120.100502,165.656654 119.755286,165.333298 C119.441453,165.849603 119.142977,166.331976 118.853183,166.820337 C118.800432,166.909492 118.051907,167.021935 118.058584,167.11974 Z M118.063258,161.470989 C118.12736,161.942716 118.179443,162.326619 118.231526,162.711186 C118.302305,162.722497 118.373752,162.734473 118.4452,162.745784 C118.544691,162.423093 118.644183,162.101068 118.731656,161.818297 C118.50396,161.699867 118.332353,161.610711 118.063258,161.470989 Z M113.418529,100.651435 C113.467941,99.6108406 113.446574,98.5655887 113.427209,97.5229982 C113.397829,95.9474689 113.208194,94.3599635 113.350421,92.8017332 C113.43589,91.8689241 114.007467,90.9740394 114.404098,90.0811508 C114.467533,89.939433 114.758663,89.8336437 114.950301,89.8236635 C116.251039,89.754468 117.563796,89.5961167 118.851179,89.7085594 C119.695858,89.781747 120.501808,90.1450236 121.337805,89.6832764 C121.428617,89.6333758 121.59822,89.6752923 121.710399,89.7238623 C121.914056,89.8130181 122.210528,90.0771587 122.277301,90.0252621 C122.60115,89.7724322 122.898958,89.4650443 123.132663,89.1263854 C123.368372,88.7863958 123.517944,88.3871907 123.738294,87.9467345 C123.867166,88.5322352 123.974003,89.016604 124.080172,89.5016381 L124.279156,89.4756898 C124.713848,88.7112122 125.149208,87.9467345 125.622628,87.1157227 C125.654011,87.5834579 125.682056,88.0066152 125.710769,88.4297726 C125.758845,88.4397527 125.806254,88.4503982 125.85433,88.4603783 L126.508706,87.2128625 C126.571472,87.2361495 126.633571,87.2601018 126.696338,87.2840541 C126.64559,87.8861884 126.594175,88.4883227 126.541424,89.1117479 C126.573476,88.7404872 128.196727,88.1004284 128.651451,88.4397527 C128.950594,88.6639729 129.204331,88.989325 129.572918,89.0551938 C130.384878,89.2009037 131.019221,88.0006272 131.81382,88.222186 C132.312614,88.3612424 132.515604,88.991321 132.985686,89.2088878 C133.806993,89.5894633 134.71978,88.4929801 135.585158,88.7604474 C135.849579,88.8416191 136.058579,89.0412217 136.303635,89.1689673 C136.958011,89.5096222 137.792673,89.2860674 138.364918,88.8209935 C138.936494,88.3559197 139.303078,87.6919086 139.65564,87.0458618 C140.537043,88.6925826 140.419523,90.6653208 140.381462,92.5309391 C140.313353,95.8869228 140.466931,99.014029 141.652152,102.129159 C142.688469,104.853068 142.274476,108.23367 142.24977,111.14454 C142.239086,112.475889 142.118895,113.805907 142.062806,115.13659 C142.019403,116.174523 141.997368,117.213787 141.969991,118.253051 C141.913902,120.407427 141.883186,122.5638 141.797717,124.717511 C141.757653,125.716189 141.536635,126.71154 141.542644,127.708222 C141.547986,128.578489 141.756318,129.447426 141.874506,130.317027 C141.959975,130.323015 142.046113,130.328338 142.131582,130.334326 C142.249102,129.674973 142.366623,129.015619 142.484143,128.356931 C142.50284,128.356265 142.522204,128.3556 142.541568,128.354935 C142.486814,129.423473 142.43206,130.492012 142.375303,131.589826 C141.971327,131.641057 141.784362,131.786767 142.168975,132.191295 C142.301853,132.330351 142.398006,132.559894 142.405351,132.752178 C142.432728,133.472743 142.493492,134.204619 142.401345,134.913873 C142.229071,136.245888 143.138519,137.500057 143.478393,138.782836 L114.600411,174.147745 C114.587056,172.843675 114.573702,171.539606 114.572366,170.230878 C114.56235,160.462996 113.972077,150.213407 114.917583,140.559963 C115.021748,139.494751 114.432143,138.428874 114.536309,137.363662 C114.553002,137.192004 114.549663,137.018349 114.575705,136.848022 C114.763337,135.626454 114.993704,134.410875 115.137933,133.18465 C115.364962,131.257155 113.108702,129.324337 113.286318,127.39152 C113.333727,126.877211 113.261612,126.352256 113.307018,125.837281 C113.409848,124.666945 113.572107,123.501932 113.66826,122.33093 C113.710327,121.817952 113.628864,121.296989 113.640883,120.780019 C113.652234,120.309622 113.757736,119.83856 113.742378,119.37016 C113.709659,118.340876 113.63888,117.312923 113.560755,116.286301 C113.489308,115.345507 113.351756,114.408041 113.307686,113.466582 C113.229561,111.834499 113.188162,110.199754 113.155443,108.56634 C113.128066,107.176442 113.221549,105.778559 113.10069,104.397309 C112.987843,103.112534 113.359101,101.900947 113.418529,100.651435 Z M185.111352,208.22788 C183.667052,210.743537 183.619643,211.295771 183.82931,214.485419 C184.037642,217.657769 184.107086,220.886007 184.26467,224.080978 C184.304734,224.882715 184.450299,225.651184 184.547788,226.434291 L184.862956,226.307877 C185.160764,220.466176 185.530686,214.630464 185.111352,208.22788 Z M182.106567,238.844246 C181.518965,239.872199 181.468885,241.025236 181.932957,241.429764 C182.630067,240.659298 182.186027,239.833609 182.106567,238.844246 Z M179.68204,241.390509 C179.666014,241.292038 179.474376,241.222177 179.364201,241.139009 C179.278731,241.26742 179.157872,241.385851 179.117808,241.526904 C179.068396,241.70455 179.050368,241.907479 179.079748,242.089117 C179.175901,242.667965 178.729189,243.304031 179.326808,243.982015 C179.782199,243.066504 179.814251,242.235493 179.68204,241.390509 Z M172.744326,237.747762 C172.667538,237.71383 172.590081,237.680563 172.512624,237.646631 C172.206804,237.916094 171.87561,238.175577 172.007153,238.635994 C172.076597,238.669261 172.14604,238.703193 172.215484,238.73646 C172.391765,238.406451 172.568713,238.077107 172.744326,237.747762 Z M164.51923,173.623456 L164.161326,173.56291 C164.066509,173.866971 163.828797,174.213614 163.903583,174.467775 C164.178687,175.393265 163.161735,176.095201 163.522309,177.007384 C163.532993,177.035994 163.471561,177.089221 163.478239,177.124484 C163.516967,177.323421 163.549686,177.526351 163.622468,177.713312 C163.640497,177.758555 163.866858,177.788495 163.890896,177.753898 C164.00441,177.586231 164.121263,177.403262 164.164665,177.209648 C164.268831,176.745239 164.362981,176.274178 164.405048,175.80112 C164.468482,175.077228 164.483172,174.350009 164.51923,173.623456 Z M164.355636,229.705112 C164.192042,229.691139 164.02778,229.675836 163.863519,229.661864 C163.833471,230.864802 162.612861,231.955297 163.437507,233.277997 C163.764695,233.107004 164.082534,232.898087 164.105237,232.677858 C164.174681,231.999875 164.109911,231.315904 164.14263,230.635259 C164.157988,230.324545 164.28085,230.015161 164.355636,229.705112 Z M162.938713,223.28789 C163.036869,224.520769 163.162403,225.752982 163.284597,227.080338 C164.062502,226.807548 164.264157,226.540081 163.996397,226.082991 C163.741324,225.648523 163.478239,225.180122 163.482913,224.727025 C163.494932,223.697076 163.720625,222.669123 163.761356,221.639174 C163.805426,220.538033 163.449526,219.398303 163.788065,218.34174 C164.2074,217.031017 164.202726,215.728278 164.326256,214.418885 C164.413728,213.492064 163.756682,212.576554 164.311566,211.629107 C164.443776,211.404222 164.027113,211.053586 163.862183,210.760836 C163.746666,210.772147 163.629813,210.784788 163.512961,210.796099 C163.410798,211.079535 163.227172,211.36164 163.21916,211.646406 C163.175089,213.108827 163.177093,214.571248 163.160399,216.033669 C163.153722,216.609855 163.189779,217.188703 163.116997,217.761562 C163.030192,218.450191 162.73973,219.134162 162.731717,219.820795 C162.71903,220.975828 162.846566,222.132192 162.938713,223.28789 Z M163.614456,170.512318 C163.784059,170.656697 163.952995,170.802407 164.12193,170.947452 C164.226764,170.707263 164.332265,170.467075 164.437099,170.226886 C164.341614,170.150372 164.246796,170.073192 164.151978,169.997344 C163.972359,170.169002 163.794075,170.34066 163.614456,170.512318 Z M187.879092,173.924856 C187.843702,174.821071 187.651396,175.710633 187.616007,176.606183 C187.58863,177.286162 187.740204,177.97213 187.733527,178.65477 C187.723511,179.64746 187.639377,180.639485 187.593304,181.632175 C187.583955,181.84708 187.539885,182.091926 187.622016,182.272899 C187.903798,182.894328 187.795626,183.471844 187.575275,184.078636 C187.500489,184.284892 187.533876,184.5823 187.628693,184.787225 C187.927169,185.427284 187.921827,186.048713 187.754894,186.728027 C187.529202,187.647529 187.31486,188.56437 187.687454,189.540427 C187.85906,189.989532 187.704815,190.561726 187.701476,191.078697 C187.695466,191.758011 187.704147,192.43799 187.684115,193.116638 C187.673431,193.494553 187.608661,193.870471 187.585959,194.247719 C187.527866,195.231094 187.490473,196.21447 187.421029,197.196514 C187.401665,197.465977 187.342905,197.753405 187.221378,197.990932 C187.054446,198.31828 186.899532,198.597058 187.284145,198.873175 C187.344908,198.917753 187.404336,199.01955 187.399662,199.090742 C187.332221,200.179241 187.218707,201.266409 187.196672,202.355574 C187.187992,202.758771 187.391649,203.166625 187.493812,203.573149 C187.530537,203.716198 187.625355,203.906485 187.568598,204.000964 C186.937593,205.048212 187.537882,206.177297 187.33556,207.277772 C187.126561,208.409518 187.364272,209.622436 187.387643,210.799426 C187.392985,211.05159 187.275464,211.306416 187.286816,211.55725 C187.317531,212.241221 186.982999,212.931846 187.398327,213.623802 C187.515179,213.819412 187.309519,214.19533 187.282142,214.490077 C187.163953,215.750234 187.141918,216.999746 187.354256,218.263895 C187.439058,218.765563 187.150599,219.32445 187.065129,219.862046 C187.023062,220.128182 187.043762,220.406961 187.057117,220.67842 C187.084494,221.280554 187.107196,221.883354 187.165957,222.483492 C187.22071,223.042379 187.34424,223.593948 187.393652,224.152835 C187.47378,225.06768 187.531205,225.98452 187.572604,226.900696 C187.606658,227.636564 187.593304,228.373763 187.622016,229.109631 C187.634703,229.426999 187.72084,229.741705 187.740204,230.059739 C187.799632,231.023153 187.945865,231.996548 187.867741,232.949983 C187.74154,234.476942 187.805642,236.031846 187.325544,237.520881 C187.183985,237.960672 187.134573,238.428407 187.005034,238.871525 C186.877497,239.303997 186.701884,239.722497 186.546303,240.148315 C186.344649,240.049845 186.149004,239.938733 185.952691,239.832278 C185.394469,240.31332 185.381115,240.999953 184.965119,241.542872 C184.456976,242.205552 183.839994,241.952057 183.338529,242.358581 C183.247718,242.431768 183.217002,242.554191 183.190961,242.66863 C183.032041,243.367239 182.873789,244.066513 182.715537,244.766453 C182.668796,244.570177 182.409717,244.505639 182.212736,244.554209 C182.016424,244.602113 181.839475,244.721875 181.639156,244.750484 C181.175752,244.815022 180.791807,244.375897 180.635558,243.936106 C180.478642,243.49698 180.44392,243.006624 180.189515,242.616068 C179.792215,243.453733 179.394248,244.291399 178.996949,245.129729 C178.917489,245.29673 178.801304,245.489014 178.615008,245.49101 C178.441398,245.49234 178.321206,245.324009 178.23774,245.172311 C177.666831,244.141031 177.302251,242.996643 177.170708,241.826307 C176.928322,243.217537 176.685936,244.608101 176.44355,245.999331 C175.926059,246.032598 175.620239,245.446432 175.451971,244.95674 C175.230953,244.314685 175.009934,243.671965 174.788248,243.029911 C174.435686,243.741161 174.083793,244.453077 173.731899,245.164992 C173.543599,245.543572 173.299878,245.967394 172.883214,246.043909 C172.359714,246.139718 171.919012,245.610771 171.799489,245.093801 C171.719361,244.750484 171.844894,243.95274 171.606515,243.689264 C171.458946,243.526256 170.980852,243.716543 170.894715,243.451072 C170.70775,242.830308 170.338496,242.247469 170.64899,241.527569 C170.808577,241.158304 170.740469,240.692565 170.775191,240.280718 C170.643648,240.501612 170.501422,240.741135 170.335157,241.020579 C170.150196,240.820976 170.017985,240.677928 169.886443,240.535544 C169.923168,240.595425 169.959225,240.656637 169.99595,240.717183 C169.53121,241.057172 169.06647,241.397827 168.494226,241.816327 C168.430791,241.592107 168.358009,241.345265 168.293239,241.097093 C168.211108,240.781055 168.160361,240.200877 168.054192,240.190897 C167.616829,240.151642 167.15476,240.25477 166.723406,240.379189 C166.637937,240.404472 166.595202,240.765753 166.625917,240.956706 C166.68401,241.31599 166.853613,241.659307 166.891674,242.018591 C166.918383,242.266764 166.802866,242.530239 166.730083,242.883535 C165.711128,242.027241 166.590528,240.807669 165.880063,239.967343 C165.625658,240.111056 165.361237,240.260758 165.021363,240.452377 C165.102158,239.625357 165.361237,238.860879 164.593348,238.299331 C164.803683,238.101059 165.010679,237.906114 165.249726,237.681228 C164.67214,237.393135 164.465144,237.710503 164.315572,238.095071 C164.190707,238.418427 164.09856,238.755755 163.963678,239.174255 C164.546607,239.763748 163.980372,240.44905 163.8308,241.119714 C163.800752,241.252783 163.358715,241.321313 163.0983,241.353915 C163.042211,241.360568 162.942052,241.083786 162.877282,240.930092 C162.712353,240.539536 162.555436,240.146319 162.391842,239.742457 C163.603772,239.541524 163.770037,239.305328 163.522309,238.238785 C163.197124,238.267394 162.830541,238.21084 162.573465,238.351227 C162.356453,238.470989 162.267644,238.820959 162.04262,239.204196 C161.875687,238.709847 161.718771,238.24943 161.563189,237.789014 C161.491742,237.846233 161.414953,237.906779 161.163219,238.108378 C160.959562,236.808965 160.684457,235.632641 160.61301,234.445006 C160.542898,233.273339 160.709831,232.088366 160.713837,230.910045 C160.716508,230.118289 160.672438,229.317883 160.54824,228.537437 C160.38932,227.543416 160.443406,226.611938 160.751898,225.637877 C160.916159,225.116915 160.719847,224.474195 160.655077,223.890025 C160.585633,223.275249 160.472787,222.665796 160.390656,222.052351 C160.345918,221.716353 160.313199,221.376364 160.29517,221.037039 C160.239749,219.979146 160.193008,218.919922 160.143596,217.862028 C160.140925,217.79749 160.120893,217.715653 160.151608,217.669745 C160.579623,217.033013 160.307857,216.353033 160.299177,215.68503 C160.277809,214.249223 160.25711,212.811419 160.303851,211.375612 C160.337905,210.349655 160.500163,209.329021 160.56894,208.303064 C160.605665,207.762806 160.499496,207.207911 160.575617,206.675638 C160.655077,206.116085 160.862073,205.573166 161.035683,205.029582 C161.38958,203.920458 161.024999,202.881194 160.747224,201.83195 C160.693137,201.627025 160.598987,201.422765 160.593646,201.216509 C160.53355,198.891805 160.494822,196.567101 160.435394,194.242397 C160.407349,193.161216 160.299844,192.080701 160.306522,191.000186 C160.322547,188.825184 160.412023,186.650847 160.430052,184.475845 C160.437397,183.520414 160.311196,182.564984 160.299177,181.608222 C160.275806,179.841075 160.278477,178.072596 160.299844,176.305449 C160.308525,175.533652 160.465442,174.759194 160.423375,173.993386 C160.31587,172.008672 160.120893,170.027284 159.990018,168.043235 C159.939938,167.28408 160.008714,166.516276 159.951289,165.758451 C159.913229,165.25878 159.680859,164.772415 159.650811,164.272743 C159.580699,163.138335 159.582035,161.999936 159.555326,160.862867 C159.543974,160.385817 159.532623,159.908767 159.523942,159.431051 C159.499904,158.059782 159.501907,156.687182 159.443815,155.317909 C159.413099,154.602001 159.280889,153.890751 159.190745,153.177504 C159.106611,152.512828 159.002445,151.850147 158.93634,151.183475 L185.863216,114.581695 C185.905283,114.94231 185.964043,115.30226 186.056857,115.661545 C186.088908,115.783968 186.077557,115.919032 186.076221,116.048108 C186.05886,117.971611 186.128304,119.88713 186.508243,121.782689 C186.57969,122.135985 186.504904,122.516561 186.528275,122.882499 C186.566335,123.479976 186.814731,124.133341 186.64713,124.660292 C186.274537,125.831959 186.705223,126.888521 186.807386,128.002969 C186.962967,129.716889 187.094509,131.466073 186.917561,133.167351 C186.725255,135.017001 186.742616,136.857337 186.675175,138.702329 C186.649134,139.4036 186.474856,140.098882 186.433457,140.800152 C186.40608,141.271879 186.499562,141.75026 186.532281,142.225979 C186.581693,142.959186 186.64713,143.692392 186.665827,144.42693 C186.692536,145.468189 186.651805,146.511445 186.702552,147.550709 C186.728594,148.071672 186.94427,148.582654 186.984334,149.104947 C187.105861,150.67715 187.21203,152.252014 187.266116,153.827543 C187.292825,154.61065 187.181314,155.398415 187.156608,156.184184 C187.149931,156.39044 187.258103,156.597361 187.272793,156.806278 C187.332889,157.649931 187.409678,158.494915 187.417023,159.339899 C187.422365,159.985281 187.281474,160.632658 187.294828,161.277375 C187.319534,162.47632 187.416355,163.674601 187.470441,164.873547 C187.495147,165.420458 187.47979,165.968699 187.501157,166.516276 C187.51785,166.938768 187.554575,167.36126 187.599981,167.781756 C187.690792,168.616759 187.845038,169.448437 187.878424,170.284771 C187.927169,171.496358 187.927169,172.713269 187.879092,173.924856 Z M230.705952,239.800342 C230.596444,240.106399 230.999753,241.128364 231.284206,241.139675 C231.467164,241.146328 231.807038,240.912128 231.826402,240.777063 C231.470502,240.372536 231.12996,239.950044 230.811453,239.516906 C230.77406,239.614046 230.739338,239.707859 230.705952,239.800342 Z M115.375645,224.900679 C115.419048,225.268613 115.460447,225.643866 115.507188,226.035086 C115.790306,225.887381 115.975934,225.790906 116.227001,225.659168 C116.313138,225.816189 116.395269,225.96456 116.4774,226.114262 C116.540834,226.079664 116.604268,226.045067 116.667703,226.011799 C116.625636,225.838145 116.59492,225.661164 116.538831,225.492168 C116.456032,225.242664 116.280419,224.999815 116.277748,224.752973 C116.275745,224.567343 116.283758,224.380382 116.285761,224.194086 L115.375645,224.900679 Z M141.642804,197.353535 C141.66751,197.16857 141.748305,196.989593 141.762995,196.804628 C141.843123,195.814599 141.895206,194.821909 141.985349,193.831881 C142.103537,192.535795 142.283157,191.244367 142.372632,189.946285 C142.464779,188.62159 142.519533,187.290906 142.510853,185.963549 C142.506178,185.262944 142.350597,184.560344 142.22039,183.866392 C142.184333,183.672112 141.997368,183.506442 141.887861,183.340772 C140.97908,184.006779 141.561341,184.893014 141.395744,185.642855 C141.278891,186.170471 141.434472,186.759963 141.47921,187.320846 C141.509925,187.700091 141.553328,188.079336 141.60274,188.455919 C141.646142,188.785929 141.815078,189.141887 141.739625,189.437964 C141.447159,190.585013 141.618098,191.711437 141.745634,192.851167 C141.802391,193.36348 142.06147,193.964284 141.371705,194.325564 C141.260194,194.383449 141.239495,194.617649 141.18207,194.772674 C141.111291,194.962962 141.047189,195.155245 140.972403,195.366824 C140.893611,195.323577 140.82617,195.285652 140.758062,195.247063 C140.338727,193.975595 139.794527,192.754692 139.781173,191.388081 C139.768486,190.165848 139.797198,188.91434 139.918725,187.689446 C140.032907,186.538405 140.197168,185.39069 140.2586,184.236987 C140.318028,183.135847 140.255261,182.029384 140.279967,180.925582 C140.308012,179.684719 140.374785,178.444522 140.420858,177.20366 C140.431542,176.916232 140.44089,176.626809 140.430874,176.338716 L115.911165,209.66901 L141.61142,198.664258 C141.592056,198.593066 141.582708,198.521875 141.553996,198.450018 C141.433804,198.14263 141.594059,197.721469 141.642804,197.353535 Z M184.975135,87.963368 C184.805531,88.0132687 184.609219,88.2907162 184.407564,88.6579848 L184.975135,87.963368 Z M141.422453,174.990733 C141.323629,175.161061 141.323629,175.408568 141.332309,175.618151 C141.368367,176.453154 141.453836,177.286828 141.469194,178.121166 C141.492564,179.450519 141.475203,180.780537 141.475203,182.110555 C141.539306,182.131181 141.603408,182.152472 141.66751,182.173763 C141.84379,181.965511 142.108879,181.783872 142.181662,181.545015 C142.434731,180.712672 142.722523,179.871015 142.813334,179.014055 C143.027675,176.983432 143.147199,174.942829 143.281413,172.904887 C143.291429,172.751193 143.295435,172.596168 143.297438,172.441809 L141.422453,174.990733 Z M165.190966,100.029341 C165.358566,100.579578 165.565562,101.08923 165.564895,101.678057 C165.564227,101.989437 165.671731,102.301483 165.743179,102.679397 C166.53978,102.317451 166.661975,101.898285 166.434947,100.958158 C166.30741,100.427215 166.260669,99.8743159 166.209922,99.3287357 C166.13113,98.4890744 166.080382,97.6480824 166.016948,96.8077558 C165.938156,96.7951143 165.859364,96.7818075 165.779904,96.769166 C165.628329,97.0805459 165.536182,97.4458185 165.313161,97.6933257 C164.631408,98.4498192 164.972618,99.3127675 165.190966,100.029341 Z M165.803274,96.5762169 C166.14582,95.9760786 166.098411,95.3100716 165.708457,94.8549778 C165.295132,95.213597 165.31917,95.9195246 165.803274,96.5762169 Z M159.400412,119.283665 C159.420444,119.115334 159.440476,118.948333 159.456502,118.780002 C159.510588,118.174541 159.489888,117.562426 159.533958,116.954969 C159.612083,115.882438 159.666837,114.80525 159.746296,113.732719 C159.809731,112.882412 159.888523,112.034767 160.007379,111.19311 C160.240417,109.540401 160.261784,107.893015 160.289829,106.23831 C160.303851,105.408629 160.340576,104.574955 160.281816,103.749266 C160.164295,102.089904 159.958635,100.43653 159.847791,98.776502 C159.781018,97.7864735 159.857807,96.7884609 159.811066,95.7964364 C159.773673,95.0199826 159.56868,94.2461901 159.578696,93.473063 C159.588712,92.760482 159.757648,92.0439089 159.910558,91.3399774 C160.054788,90.675301 160.290496,90.0305848 160.449416,89.3679045 C160.637048,88.5841319 161.221979,88.1516597 161.845639,87.7704189 C162.206881,87.5501908 162.992131,87.9793362 163.131687,88.4750158 C163.35738,89.2760873 163.526983,90.0558678 163.352706,90.9374456 C163.16908,91.8642667 163.304629,92.8509685 163.253214,93.8083952 C163.236521,94.1377394 163.036202,94.4544421 162.998809,94.7857823 C162.96008,95.1171224 163.01016,95.4604388 163.040208,95.7971017 C163.067585,96.1098123 163.133022,96.4198616 163.159064,96.7332375 C163.217824,97.4325117 163.240527,98.1357779 163.319319,98.8323907 C163.543009,100.814444 162.81318,102.340738 163.161735,104.379345 C163.216489,104.700705 163.293945,105.04136 163.528986,105.268907 C163.764027,105.497119 164.2074,105.535709 164.391026,105.26558 C164.467147,105.153803 164.484508,105.014746 164.501201,104.881678 C164.71621,103.101889 164.645431,101.403937 164.645431,99.6108406 C164.644095,99.0439694 164.609373,98.4777636 164.612044,97.9122231 C164.612712,97.6720347 164.675478,97.4331771 164.706194,97.1929887 C164.728897,97.0080237 164.777641,96.8190666 164.758277,96.6374283 C164.685494,95.9341621 164.598022,95.2315612 164.49853,94.5316217 C164.423744,94.0099938 164.401709,93.4610869 164.216748,92.9773834 C163.815442,91.9327969 163.835474,90.8955291 164.045141,89.8289863 C164.118592,89.4530682 164.121263,89.0638433 164.157988,88.6806064 C164.218751,88.041213 164.689501,87.8436065 165.203653,87.8868537 C165.669728,87.9267742 165.954181,88.2068831 166.024961,88.781073 C166.099746,89.3918568 166.415583,89.9740308 166.625917,90.568181 C166.699368,90.5595315 166.774154,90.5502167 166.847604,90.5415673 C166.874981,90.2421635 166.921054,89.9427597 166.92506,89.6426906 C166.941086,88.6779451 167.014536,88.5814705 167.905956,88.2062178 C168.229137,88.0698227 168.518264,87.8549173 168.830094,87.6885819 C168.937598,87.6313625 169.130572,87.5448681 169.17531,87.5867846 C169.519859,87.9134674 169.9018,87.7903792 170.29309,87.7438053 C170.682377,87.696566 171.077005,87.6972313 171.652588,87.667291 C171.772779,87.9553839 171.985118,88.4663664 172.276248,89.1683019 C172.444516,88.7211923 172.527314,88.4237845 172.667538,88.1556518 C172.771036,87.9567146 172.921275,87.7311638 173.108907,87.647996 C173.203725,87.6060795 173.448114,87.8342917 173.588337,87.9760095 C173.764618,88.1536558 173.918863,88.3579157 174.05508,88.5681637 C174.712126,89.5868019 174.704114,89.5848059 175.486693,88.5894546 C175.695025,88.3246486 175.933404,88.0764761 176.185139,87.8515906 C176.803456,87.3006877 177.262187,87.4756725 178.081491,87.910806 C178.562925,88.1662973 179.309447,88.1243807 179.873011,87.9753442 C180.539405,87.7990286 180.959407,87.8655628 181.255879,88.5548568 C181.296611,88.6493354 181.327326,88.7830691 181.40278,88.8236549 C182.624058,89.4816779 182.447777,89.1809434 182.726221,90.2574664 C182.764949,90.4065029 182.812358,90.4876746 182.859767,90.5542088 L166.021622,111.175145 C166.108427,110.67747 165.984229,110.077997 165.62499,109.592963 L165.62499,111.660845 L159.400412,119.283665 Z M233.571181,217.618513 C233.607906,215.667731 233.644631,212.701638 233.644631,213.30976 C233.643963,213.958468 233.603232,215.953828 233.571181,217.618513 Z" id="Fill-42" fill="#000000"></path>
                            <path d="M229.219785,96.7003697 C229.155683,96.5846002 228.81247,96.6218593 228.596126,96.5892576 C228.566745,96.6591185 228.538033,96.728314 228.508653,96.7975096 C228.766397,97.1128815 229.02414,97.4275882 229.282552,97.7429602 C229.347322,97.7150158 229.412759,97.6870715 229.478197,97.6597925 C229.40074,97.3351057 229.374699,96.9824746 229.219785,96.7003697 Z M231.146186,125.362627 C230.464434,125.862964 230.513846,126.135088 231.146186,126.34334 L231.146186,125.362627 Z M83.2940954,249.13349 C82.3338998,249.008405 79.7083859,250.464838 79.1354736,249.618524 C78.9151228,249.293172 78.8643753,248.708336 78.4717501,248.740273 C78.3181722,248.753579 78.1986486,248.876002 78.1071696,248.999756 C77.4901872,249.83476 77.463478,251.010419 76.7890708,251.800845 C76.7162882,251.886008 76.6194674,251.972503 76.5079565,251.960527 C76.3717396,251.946554 76.2962861,251.800845 76.2455387,251.673764 C75.7514185,250.44754 75.2566307,249.219984 74.7618428,247.992428 C74.3398376,248.740938 73.9171645,249.490113 73.4951592,250.239288 C73.2294027,249.853389 72.9629785,249.468156 72.697222,249.082924 C72.4775389,249.257243 72.2578558,249.431563 72.0381726,249.605882 C71.661573,249.073609 71.2843056,248.54067 70.9077059,248.008397 C70.5691669,249.305813 69.9341557,250.525385 69.0647714,251.548015 C67.5143026,246.6511 68.8016859,241.54061 68.8076954,236.549881 C68.8090309,235.366238 68.6968523,234.180599 68.6267406,232.996956 C68.5799995,232.208526 68.5285843,231.420762 68.4778369,230.632332 L0.203791162,314.244498 L83.9264356,249.297164 C83.7181038,249.224641 83.5084367,249.161434 83.2940954,249.13349 Z M141.654355,200.226214 C141.595595,201.492359 141.504784,202.753182 141.817281,204.021989 C141.843991,204.127778 141.854674,204.238225 141.8707,204.347341 L158.541244,191.414428 L141.610953,198.663992 C141.752512,199.190942 141.679061,199.698598 141.654355,200.226214 Z M231.030669,131.982777 C231.04202,132.08524 231.268381,132.165081 231.397252,132.254902 C231.415281,131.946183 231.432642,131.636799 231.451339,131.327415 C231.341831,131.30679 231.232991,131.285499 231.123483,131.264873 C231.08609,131.505062 231.005295,131.749242 231.030669,131.982777 Z M222.147858,64.4259724 L268.508344,0.139322561 C237.721322,24.2187056 208.213003,45.8110411 180.02946,64.8770741 L212.657413,54.0619441 L184.974667,87.9637672 C185.070153,87.9358229 185.156958,87.9764087 185.231743,88.1121384 C185.896802,89.3257218 185.354606,98.0543401 185.573621,99.3291349 C185.645736,99.7483002 185.858074,100.959887 185.858742,101.379053 C185.860077,102.683788 185.157625,106.206107 185.152951,106.666524 C185.138261,108.221427 185.637723,109.680522 185.913496,111.182198 C185.974259,111.5162 185.969585,111.878145 185.914831,112.214808 C185.784624,113.010557 185.770601,113.797656 185.862748,114.581429 L202.624104,91.7974664 C202.636791,91.4022534 202.650145,91.006375 202.662832,90.611162 C202.682864,90.0070317 202.702228,89.4035668 202.72226,88.7994365 C202.744295,88.1400828 202.718921,87.4554461 203.056793,86.861296 C203.10754,86.9344836 203.158288,87.0076712 203.209035,87.0808587 C203.592312,86.7242356 203.619689,86.4408 203.941535,86.0282881 C204.070407,86.2318827 204.211966,86.4274932 204.364208,86.6131235 C204.421633,86.6829844 204.489741,86.756172 204.579885,86.7654868 C204.706753,86.7794589 205.191525,86.5219717 205.290349,86.3948914 C205.389841,86.2678111 205.903325,86.0702046 205.929367,85.9630846 C206.020846,86.0968183 206.11366,86.2312173 206.204471,86.364951 C206.235855,86.4101943 206.271912,86.4587642 206.325331,86.4694097 C206.433503,86.4907006 206.908927,86.7402038 207.236782,86.8779295 C207.515225,86.9950297 207.833732,86.9092006 208.122859,86.8213755 C208.13755,87.0795281 208.245722,87.3310272 208.42267,87.5199843 C208.547536,87.4720797 208.665056,87.4042148 208.768554,87.3197164 C209.081052,87.367621 209.264678,87.6936385 209.356824,87.994373 C209.449639,88.2957728 209.510402,88.631105 209.746111,88.8406877 C209.818226,88.5619095 209.919721,88.2911154 210.047257,88.0329628 C210.130723,88.128772 210.213522,88.2239159 210.296988,88.3190597 C210.507991,88.2551869 210.721664,88.1899834 210.909296,88.0755446 C211.183066,87.9085439 211.331302,87.6297657 211.440142,87.3396767 C211.557662,87.0289621 212.728193,87.1866481 212.948543,87.3556449 C213.310453,87.6330924 213.126827,88.6637068 213.956148,88.2937767 C214.31138,88.1347601 214.484322,87.7282363 214.548424,87.3449994 C214.64658,86.758168 214.568456,86.1566991 214.605849,85.5625489 C214.64391,84.9690641 214.830874,85.6670075 215.316314,85.3203645 C215.810434,85.5765211 216.022104,86.1533724 216.255142,86.6583667 C216.48818,87.1626958 216.879469,87.7002919 217.437024,87.7049493 C217.836326,87.708276 218.176201,87.4308285 218.476679,87.1686839 C218.741768,87.5306298 219.025553,87.8779382 219.328035,88.2092783 C219.411501,88.3004302 219.501645,88.3942433 219.621836,88.4255144 C219.870899,88.4913832 220.092585,88.265167 220.250837,88.0629032 C220.523939,87.7142641 220.79704,87.3649597 221.069474,87.0163206 C221.265119,87.2026163 221.641051,88.7335676 221.868747,88.6929818 L222.111133,88.6503999 C222.220641,88.3004302 222.330148,87.9517911 222.449004,87.5692196 C222.531803,87.6204509 222.627288,87.679001 222.765508,87.7641647 C222.853649,87.3583063 222.937783,86.9697467 223.005891,86.6523787 C223.175494,86.8845829 223.496005,87.4308285 223.566116,87.4008881 C224.022176,87.2046123 224.444181,86.8965591 224.401446,86.2545043 C224.519635,86.65504 224.613785,87.0655559 224.763356,87.4541155 C224.893563,87.7887824 224.954327,88.2232505 225.552613,88.0396162 C225.763615,87.9744127 225.953918,88.3130717 226.102822,88.3995661 C226.339866,88.5379572 226.631664,88.5838657 226.873382,88.7309063 C226.925465,88.2299039 227.155832,87.7488619 227.513068,87.3922387 C227.584515,87.500024 227.614563,87.6350884 227.595198,87.762834 C227.726074,87.7348897 227.842259,87.6497259 227.907028,87.5346218 L228.04191,87.9125359 C228.379781,87.6397458 228.688272,87.3296966 228.958703,86.9897069 C229.240485,87.1473929 229.468849,87.3975614 229.598388,87.6923078 C229.77734,87.6118015 229.945608,87.5100042 230.098518,87.3882466 C230.433051,87.7295669 230.662082,88.1713539 230.748219,88.6404198 C230.792289,88.4454747 230.884436,88.2618403 231.014643,88.1094771 C231.046694,88.2212545 231.061384,88.3383546 231.056043,88.4547894 C231.120812,88.4787417 231.191592,88.4833991 231.258365,88.4687616 C231.308444,89.5612528 231.128157,90.6490865 231.072736,91.7409123 C230.969238,93.7861728 231.300432,95.8367561 231.159541,97.8793552 C231.120812,98.4508838 231.044023,99.0184203 230.96857,99.5859568 C230.96857,100.385032 230.702146,101.195418 230.646724,101.993163 C230.626692,102.265953 230.703481,102.478863 230.740206,102.744334 C230.800302,103.17481 230.780938,103.627908 230.80965,104.061711 C230.877759,105.07303 230.680778,105.900715 230.64806,106.842174 C230.609999,107.896075 231.154199,108.814912 230.761574,109.902746 C230.609331,110.322576 230.914484,110.895436 230.971241,111.404422 C231.011305,111.766368 230.979254,112.136298 230.913816,112.506228 C231.141512,113.284013 231.305106,114.024538 230.88911,114.859542 C230.768919,115.101726 230.89512,115.486294 230.522526,115.671259 C230.487804,115.688558 230.493814,115.912778 230.551906,115.970663 C230.884436,116.303999 230.929842,116.667941 230.901129,117.051178 C230.85372,117.669945 230.802973,118.288713 230.800302,118.909477 C230.794292,120.453735 230.798299,121.997328 230.791621,123.540921 C230.788951,123.96807 230.8831,124.256829 231.369208,124.021298 C231.482722,124.851644 231.592897,125.658704 231.720434,126.593509 C231.420623,126.473747 231.287745,126.42052 231.159541,126.369289 C231.088761,127.338692 230.98927,128.307429 230.959889,129.278163 C230.946535,129.720615 231.042688,130.175709 231.154867,130.60685 C231.194263,130.756552 231.432642,130.854357 231.58021,130.97545 L231.729114,130.870991 C231.754488,130.992748 231.8039,131.114506 231.800561,131.234933 C231.765172,132.572935 231.732453,133.910272 231.679702,135.246944 L251.849819,120.759792 L264.704287,35.6605875 L224.50628,71.8278993 L222.147858,64.4259724 Z M182.859299,90.5539426 C182.934753,90.659732 183.008871,90.7269315 183.04426,90.9697812 C183.151765,91.7116373 183.802134,89.7635167 184.407765,88.658384 L182.859299,90.5539426 Z M231.190924,134.682068 C230.798967,135.1518 230.694133,135.501104 230.879762,135.821133 L231.190924,135.597579 L231.190924,134.682068 Z M227.763466,100.08829 C227.858952,100.188091 228.070622,100.320494 228.127379,100.283235 C228.248238,100.204725 228.395139,100.00113 228.367094,99.8893526 C228.239558,99.3750435 228.055264,98.8740411 227.891671,98.3683814 C227.831575,98.3863456 227.771479,98.4049752 227.711383,98.4222741 C227.694023,98.6172192 227.740096,98.8527502 227.646614,98.99846 C227.378186,99.4136333 227.452304,99.7629377 227.763466,100.08829 Z M117.435792,221.719414 C117.30425,221.771976 116.370763,222.107973 116.357409,222.322213 C116.319348,222.945639 116.294642,223.569729 116.285961,224.194485 L117.206761,223.479908 C117.194742,223.378776 117.186729,223.276979 117.173374,223.175182 C117.123962,222.785957 117.05986,222.398728 117.002436,222.010833 C117.077221,221.962929 118.022059,221.915024 118.096845,221.867785 C117.872488,221.807904 117.608734,221.650218 117.435792,221.719414 Z M119.546486,194.750452 C119.28674,194.891504 118.966897,195.286052 119.001619,195.522913 C119.072398,196.006617 119.5338,196.103757 119.991862,196.052525 C120.099367,195.387184 119.802227,194.611395 119.546486,194.750452 Z M166.021822,111.174879 L165.625191,111.660579 L165.625191,111.932038 C165.83419,111.753061 165.967736,111.482932 166.021822,111.174879 Z M117.558655,198.03857 C117.384377,198.119742 117.2101,198.200914 116.97773,198.31003 C116.943675,198.294062 116.81881,198.235512 116.686599,198.173635 C116.317345,199.553554 116.371431,200.202927 116.874899,200.610116 C117.139988,200.135728 117.713568,199.733196 117.159352,199.069185 C117.243486,199.080496 117.326952,199.092472 117.410419,199.104448 C117.459831,198.74849 117.509243,198.393198 117.558655,198.03857 Z M96.6633832,239.416173 L115.375846,224.900413 C115.337785,224.571734 115.298389,224.249043 115.253651,223.927018 C115.149485,223.176512 115.860618,222.43266 115.787167,221.680159 C115.741094,221.213754 115.843257,220.734043 115.821221,220.263646 C115.761793,218.999497 115.676992,217.736678 115.591522,216.473859 C115.495369,215.06267 116.052256,213.653476 115.987486,212.240955 C115.406561,199.529601 114.731486,186.947989 114.600611,174.148145 L97.2216054,195.431096 C97.2062476,197.443755 97.1935607,198.902849 97.1875512,199.23419 C97.1621774,200.510315 97.0833853,226.84188 96.9625262,227.772028 C96.8423348,228.689534 96.8176288,229.62567 96.8216352,230.552491 C96.8256416,231.452698 97.0192832,232.359559 96.9511748,233.249786 C96.8697117,234.301691 96.7982646,237.094796 96.6633832,239.416173 Z M119.838952,186.69782 L119.838952,187.720451 C120.244264,187.381126 120.372468,187.041137 119.838952,186.69782 Z M158.935873,151.183209 C158.932534,151.151273 158.927192,151.119336 158.925189,151.0874 C158.785633,149.5977 158.620036,148.107999 158.559941,146.614973 C158.503184,145.205779 158.58064,143.791928 158.574631,142.380738 C158.57196,141.697432 158.467126,141.01346 158.488494,140.332816 C158.565283,137.927605 158.66611,135.52306 158.780292,133.119181 C158.859084,131.446511 158.977272,129.775838 159.074093,128.103835 C159.151549,126.772486 159.259722,125.441137 159.285763,124.108457 C159.301789,123.261477 159.13085,122.40984 159.159562,121.564191 C159.185604,120.802374 159.309801,120.043885 159.399945,119.283399 L143.478593,138.78257 C143.546034,139.037395 143.598785,139.293552 143.607465,139.551705 C143.619484,139.910324 143.545366,140.2736 143.572743,140.630224 C143.676909,141.975545 143.830487,143.317539 143.915289,144.664191 C143.960694,145.385421 143.901934,146.11264 143.893254,146.837197 C143.885241,147.485905 143.896592,148.134613 143.87389,148.782656 C143.834493,149.899765 143.783746,151.016208 143.721647,152.131986 C143.663555,153.179234 143.554715,154.224486 143.525335,155.271734 C143.499961,156.182587 143.564731,157.095436 143.570072,158.008285 C143.574747,158.686268 143.542696,159.364916 143.536018,160.043565 C143.530009,160.626404 143.642855,161.233861 143.513315,161.78676 C143.312329,162.644386 144.571667,163.599817 143.901266,164.377601 C143.407146,164.95046 143.879899,165.514005 144.003429,166.076884 C144.119614,166.606496 143.6502,167.1401 143.632171,167.66572 C143.596782,168.710306 143.401805,169.748905 143.320341,170.793491 C143.278274,171.340402 143.304984,171.891971 143.296971,172.441543 L158.935873,151.183209 Z M141.469394,168.3956 C141.446024,168.115491 141.338519,167.842701 141.269743,167.566584 C141.201635,167.559931 141.133526,167.554608 141.065418,167.547954 C140.954574,167.807438 140.766275,168.060268 140.746243,168.325739 C140.695495,169.020356 140.760933,169.723622 140.699502,170.416243 C140.617371,171.341733 140.458451,172.26057 140.332918,173.182068 C140.312886,173.33044 140.271487,173.480141 140.278832,173.627847 C140.324237,174.506098 140.385669,175.383019 140.429739,176.261935 C140.431074,176.287218 140.429739,176.313167 140.430407,176.339115 L141.422653,174.990467 L141.422653,174.989802 C141.882051,174.200707 141.894738,173.379009 141.792575,172.496766 C141.634991,171.135477 141.584244,169.762212 141.469394,168.3956 Z M140.99998,158.883209 C141.022015,158.383537 141.044718,157.883866 141.072095,157.264432 C141.569554,157.764104 141.552193,158.344947 140.99998,158.883209 Z" id="Fill-44" fill="#C00602"></path>
                            <path d="M141.071961,157.264299 C141.044584,157.883733 141.021882,158.383404 140.999847,158.883076 C141.552727,158.344814 141.56942,157.763971 141.071961,157.264299 Z M119.838819,186.697687 L119.838819,187.720318 C120.244131,187.381659 120.372335,187.041004 119.838819,186.697687 Z M119.546353,194.750319 C119.287274,194.891371 118.967431,195.285919 119.001485,195.52278 C119.072265,196.006484 119.533666,196.103624 119.991729,196.052392 C120.099233,195.387051 119.802094,194.611262 119.546353,194.750319 Z M117.558521,198.038437 C117.384244,198.119609 117.210634,198.200781 116.977596,198.309897 C116.943542,198.293929 116.818676,198.235379 116.686466,198.173502 C116.317211,199.554086 116.371297,200.202794 116.874766,200.609983 C117.140522,200.13626 117.714102,199.733063 117.159219,199.069052 C117.243353,199.081028 117.326819,199.092339 117.410285,199.104315 C117.459697,198.749022 117.509109,198.393065 117.558521,198.038437 Z M143.297505,172.442075 L141.42252,174.990999 L141.42252,174.990334 C141.881918,174.200573 141.894605,173.378876 141.792442,172.497299 C141.634858,171.136009 141.584778,169.762079 141.469261,168.395467 C141.44589,168.116023 141.338386,167.842568 141.269609,167.566451 C141.201501,167.560463 141.133393,167.554475 141.065284,167.547821 C140.954441,167.807305 140.766141,168.0608 140.746777,168.325606 C140.695362,169.020223 140.761467,169.724154 140.699368,170.416775 C140.617237,171.3416 140.458985,172.260437 140.333452,173.181935 C140.312753,173.330306 140.271353,173.480008 140.279366,173.627714 C140.324104,174.505965 140.386203,175.382886 140.429605,176.261802 C140.430941,176.287085 140.429605,176.313033 140.430941,176.338982 L115.911231,209.669276 L141.611487,198.664524 C141.753046,199.191475 141.679596,199.698465 141.65489,200.226081 C141.596129,201.492892 141.50465,202.753049 141.817816,204.021856 C141.843857,204.12831 141.854541,204.238757 141.870566,204.347208 L117.206627,223.479775 C117.194608,223.378643 117.186596,223.276846 117.173241,223.175048 C117.123829,222.786489 117.060395,222.398595 117.002302,222.0107 C117.077088,221.962796 118.021926,221.914891 118.096711,221.867652 C117.872354,221.807771 117.608601,221.650085 117.436327,221.719281 C117.304116,221.771843 116.37063,222.10784 116.357275,222.32208 C116.319882,222.945506 116.295176,223.569596 116.285828,224.194352 L115.375712,224.90028 C115.337651,224.571601 115.298255,224.24891 115.253517,223.926885 C115.149352,223.176379 115.860484,222.432527 115.787034,221.680026 C115.74096,221.213621 115.843123,220.734575 115.821088,220.264178 C115.76166,218.999364 115.676858,217.736545 115.591389,216.473726 C115.495236,215.062537 116.052122,213.653343 115.98802,212.240822 C115.406428,199.529468 114.731353,186.947856 114.600478,174.148011 L143.47846,138.782436 C143.545901,139.037262 143.598651,139.293419 143.607332,139.551572 C143.619351,139.910191 143.545901,140.273467 143.573278,140.63009 C143.676776,141.975411 143.830354,143.318071 143.915155,144.664723 C143.960561,145.385288 143.901801,146.112506 143.89312,146.837064 C143.885107,147.485772 143.896459,148.13448 143.873756,148.782523 C143.83436,149.899632 143.783612,151.016075 143.721514,152.131853 C143.663421,153.179101 143.554581,154.224353 143.525201,155.271601 C143.499827,156.183119 143.564597,157.095968 143.570607,158.008151 C143.574613,158.686135 143.54323,159.364783 143.535885,160.043432 C143.530543,160.626271 143.642721,161.233728 143.513182,161.786627 C143.312195,162.644253 144.571534,163.599683 143.901133,164.377468 C143.407013,164.950327 143.880433,165.513872 144.003296,166.076751 C144.119481,166.607028 143.650066,167.139967 143.632038,167.665587 C143.596648,168.710173 143.401671,169.748772 143.320876,170.793358 C143.278141,171.340269 143.30485,171.891838 143.297505,172.442075 Z M231.451205,131.327948 C231.341697,131.306657 231.232857,131.286031 231.12335,131.26474 C231.085957,131.504928 231.005161,131.749109 231.030535,131.982644 C231.041887,132.085106 231.268915,132.164947 231.397119,132.255434 C231.415148,131.94605 231.433176,131.636666 231.451205,131.327948 Z M231.146052,126.343207 L231.146052,125.362494 C230.4643,125.862831 230.51438,126.134955 231.146052,126.343207 Z M229.478063,97.6596594 C229.400607,97.3349726 229.375233,96.9823415 229.219652,96.7002366 C229.156217,96.5844671 228.812337,96.6217263 228.59666,96.5897899 C228.56728,96.6589854 228.5379,96.7281809 228.508519,96.7980418 C228.766931,97.1127485 229.024007,97.4274551 229.282418,97.7428271 C229.347856,97.7155481 229.412626,97.6876037 229.478063,97.6596594 Z M228.366961,99.8892196 C228.239424,99.3749104 228.055131,98.8739081 227.891537,98.3682483 C227.831441,98.3862126 227.771346,98.4048421 227.71125,98.4228064 C227.693889,98.6170862 227.739962,98.8526171 227.64648,98.998327 C227.378053,99.4135002 227.452171,99.7628046 227.764001,100.088157 C227.858818,100.187958 228.071156,100.320361 228.127246,100.283102 C228.248105,100.204592 228.395005,100.000997 228.366961,99.8892196 Z M231.728981,130.870858 C231.754354,130.992615 231.803766,131.114373 231.800428,131.2348 C231.765038,132.572802 231.732319,133.910139 231.679569,135.24681 L231.19079,135.597446 L231.19079,134.681935 C230.798833,135.151667 230.693999,135.500971 230.880296,135.821 L206.080808,153.63353 L228.463114,87.9815984 L211.234347,103.213267 L205.766975,87.525174 L202.62397,91.7973333 C202.637325,91.4021203 202.650012,91.0069073 202.662699,90.611029 C202.682731,90.007564 202.702095,89.4034337 202.722794,88.7999687 C202.744162,88.1399497 202.719456,87.4559784 203.057327,86.8618282 C203.107407,86.9343505 203.158154,87.0075381 203.208902,87.0807257 C203.592179,86.7241025 203.619556,86.4406669 203.941401,86.0288204 C204.070273,86.2317496 204.211832,86.4273601 204.364742,86.6129904 C204.422167,86.6828513 204.489608,86.7560389 204.579751,86.766019 C204.70662,86.7793259 205.191392,86.5218386 205.290216,86.3947583 C205.389707,86.2676781 205.903192,86.0707369 205.929233,85.9629515 C206.020712,86.0966852 206.113527,86.2310843 206.204338,86.364818 C206.235721,86.4100612 206.271779,86.4586311 206.325197,86.4692766 C206.433369,86.4905676 206.908793,86.7400707 207.236648,86.8777964 C207.515092,86.9948966 207.833599,86.9090675 208.123394,86.8212424 C208.137416,87.079395 208.245588,87.3315595 208.422537,87.5198512 C208.547402,87.472612 208.664923,87.4040818 208.768421,87.3195834 C209.080918,87.367488 209.264544,87.6935054 209.356691,87.9942399 C209.449505,88.2956397 209.510936,88.6309719 209.745977,88.8405546 C209.81876,88.5617764 209.919587,88.2909823 210.047123,88.0328297 C210.13059,88.1286389 210.213388,88.2237828 210.296854,88.3189267 C210.507857,88.2550539 210.721531,88.1905157 210.909163,88.0754116 C211.1836,87.9084108 211.331168,87.6296326 211.440008,87.3395436 C211.557528,87.028829 212.728059,87.186515 212.94841,87.3555118 C213.310319,87.6329593 213.127361,88.6635737 213.956014,88.2936437 C214.311247,88.1352923 214.484189,87.7281032 214.548958,87.3448663 C214.646447,86.7580349 214.568323,86.156566 214.605715,85.5624158 C214.643776,84.968931 214.83074,85.6668745 215.31618,85.3202314 C215.8103,85.576388 216.022638,86.1532393 216.255008,86.6582337 C216.488046,87.1625627 216.879336,87.7001588 217.43689,87.7048162 C217.836193,87.7081429 218.176067,87.4313608 218.476546,87.1685508 C218.741634,87.5304967 219.026087,87.8778051 219.327901,88.2091453 C219.411367,88.3002971 219.502179,88.3941103 219.621702,88.4253813 C219.870766,88.4912502 220.092452,88.265034 220.251372,88.0627701 C220.523805,87.714131 220.796907,87.3648266 221.069341,87.0161875 C221.264986,87.2024832 221.641585,88.7340999 221.868613,88.6928487 L222.111667,88.6502668 C222.220507,88.3009624 222.330015,87.951658 222.449538,87.5697519 C222.532337,87.6203178 222.627155,87.6788679 222.765375,87.7640316 C222.853515,87.3588385 222.937649,86.9702789 223.006425,86.6522456 C223.175361,86.8844499 223.495871,87.4313608 223.565983,87.4007551 C224.022042,87.2044792 224.444048,86.896426 224.401313,86.2543712 C224.519501,86.654907 224.613651,87.0654228 224.763222,87.4539824 C224.89343,87.7893146 224.954861,88.2231174 225.552479,88.0394831 C225.763482,87.9742796 225.954453,88.3129386 226.102689,88.4000984 C226.339733,88.5378241 226.631531,88.5837327 226.873917,88.7314385 C226.926,88.2297709 227.155699,87.7487288 227.513602,87.3921056 C227.584381,87.5005563 227.614429,87.6349553 227.595733,87.7633663 C227.72594,87.7347566 227.842125,87.6495929 227.906895,87.5344887 L228.042444,87.9124029 C228.379648,87.6396127 228.688139,87.3295635 228.959237,86.9895739 C229.240351,87.1472599 229.468715,87.3974283 229.598922,87.6928401 C229.777206,87.6116684 229.945474,87.5098711 230.099052,87.3887789 C230.433585,87.7294339 230.661948,88.1712208 230.748085,88.6402867 C230.792823,88.4453416 230.884302,88.2617073 231.01451,88.109344 C231.047228,88.2211214 231.061251,88.3382216 231.055909,88.4553217 C231.120679,88.4786087 231.191458,88.4839314 231.258231,88.4692939 C231.308311,89.5611197 231.128692,90.6489534 231.07327,91.7414446 C230.969104,93.7860398 231.300298,95.836623 231.160075,97.8792222 C231.120679,98.4507507 231.044558,99.0189526 230.968436,99.5864891 C230.968436,100.384899 230.702012,101.195285 230.646591,101.99303 C230.627226,102.26582 230.703348,102.47873 230.74074,102.744201 C230.800168,103.174677 230.780804,103.627775 230.809517,104.061578 C230.878293,105.073562 230.681312,105.900582 230.647926,106.842041 C230.609865,107.895942 231.154733,108.815444 230.76144,109.902613 C230.609198,110.322443 230.91435,110.895303 230.971107,111.404289 C231.011171,111.766235 230.97912,112.136165 230.913682,112.506095 C231.141378,113.28388 231.304972,114.024405 230.888976,114.860074 C230.769453,115.101593 230.894986,115.486161 230.522393,115.671126 C230.488339,115.688425 230.49368,115.912645 230.551773,115.971195 C230.884302,116.303866 230.929708,116.667808 230.900996,117.051044 C230.853587,117.669812 230.802839,118.28858 230.800168,118.910009 C230.794827,120.453602 230.798165,121.997195 230.791488,123.540788 C230.788817,123.967937 230.882967,124.256696 231.369074,124.021165 C231.482588,124.851511 231.592764,125.658571 231.7203,126.593376 C231.420489,126.473614 231.287611,126.420387 231.160075,126.369156 C231.088628,127.338558 230.989804,128.307961 230.960424,129.27803 C230.946401,129.720482 231.043222,130.175576 231.155401,130.607382 C231.194129,130.756419 231.433176,130.854224 231.580077,130.975316 L231.728981,130.870858 Z M96.8215016,230.552358 C96.818163,229.625537 96.842869,228.690066 96.9623926,227.771895 C97.0839195,226.841747 97.1620439,200.510182 97.1874176,199.234057 C97.1940949,198.902716 97.2067818,197.443622 97.2214718,195.430963 L68.4777033,230.632199 C68.5284508,231.420629 68.579866,232.209059 68.6266071,232.996823 C68.6967187,234.180466 68.8088973,235.366105 68.8075619,236.549748 C68.8015523,241.540477 67.5141691,246.650966 69.0653056,251.547882 C69.9340222,250.525251 70.5690333,249.30568 70.9075724,248.008264 C71.284172,248.540537 71.6614394,249.073476 72.0380391,249.605749 C72.2577222,249.43143 72.4774053,249.25711 72.6977562,249.082791 C72.9635127,249.468023 73.2292692,249.853256 73.4950257,250.239154 C73.9176987,249.48998 74.339704,248.740805 74.7617093,247.992295 C75.2564971,249.219851 75.751285,250.447406 76.2460728,251.673631 C76.2968203,251.800712 76.3716061,251.946421 76.507823,251.960394 C76.6200016,251.97237 76.7168224,251.885875 76.7889372,251.800712 C77.4633444,251.010286 77.4900536,249.834627 78.1077038,248.999623 C78.198515,248.875869 78.3187064,248.753446 78.4722843,248.74014 C78.8642417,248.708203 78.9156569,249.293039 79.1360078,249.619056 C79.70892,250.464705 82.3337662,249.008938 83.2939618,249.133357 C83.5083031,249.161301 83.7179703,249.224508 83.926302,249.297031 L96.6639174,239.416706 C96.7981311,237.094663 96.8695782,234.301558 96.9510412,233.249653 C97.0191497,232.359426 96.825508,231.452565 96.8215016,230.552358 Z M185.863282,114.581296 L158.935739,151.183076 C158.933068,151.151139 158.927726,151.119203 158.925055,151.087267 C158.7855,149.597566 158.619903,148.107866 158.559807,146.614839 C158.50305,145.205646 158.580507,143.791794 158.574497,142.380605 C158.571826,141.697964 158.466993,141.013327 158.48836,140.332683 C158.565817,137.927472 158.665976,135.522927 158.780158,133.119048 C158.85895,131.446378 158.977138,129.775705 159.073959,128.103701 C159.152084,126.772353 159.259588,125.441004 159.28563,124.108324 C159.301655,123.261344 159.130716,122.409707 159.159429,121.564058 C159.18547,120.802241 159.309668,120.043752 159.400479,119.283931 L165.625057,111.660446 L165.625057,111.931905 C165.834057,111.752928 165.96827,111.482799 166.021689,111.175412 L182.859833,90.5538096 C182.934619,90.6602643 183.008737,90.7274638 183.044127,90.9696482 C183.151631,91.7121695 183.802668,89.7633836 184.407631,88.6582509 L184.975202,87.9636342 C185.070019,87.9356898 185.156824,87.9762757 185.23161,88.1120054 C185.896669,89.3255887 185.354472,98.054207 185.573488,99.3290018 C185.645602,99.7481671 185.857941,100.959754 185.858608,101.37892 C185.860611,102.683655 185.157492,106.205974 185.152818,106.666391 C185.138795,108.221294 185.638257,109.680389 185.913362,111.182065 C185.974793,111.516067 185.969451,111.878678 185.914698,112.214675 C185.78449,113.010424 185.770468,113.797523 185.863282,114.581296 Z" id="Fill-46" fill-opacity="0.9" fill="#D0021B"></path>
                        </g>
                    </g>
                </g>
            </g>
        </g>
    </g>
</svg>