<?xml version="1.0" encoding="UTF-8"?>
<svg width="24px" height="12px" viewBox="0 0 24 12" version="1.1" xmlns="http://www.w3.org/2000/svg" xmlns:xlink="http://www.w3.org/1999/xlink">
    <!-- Generator: Sketch 51.2 (57519) - http://www.bohemiancoding.com/sketch -->
    <title>icon</title>
    <desc>Created with Sketch.</desc>
    <defs></defs>
    <g id="Symbols" stroke="none" stroke-width="1" fill="none" fill-rule="evenodd">
        <g id="top-header-1280" transform="translate(-922.000000, -9.000000)" fill="#FFFFFF">
            <g id="top-header">
                <g id="awmh" transform="translate(922.000000, 3.000000)">
                    <g id="icon">
                        <path d="M11.649512,7.35129038 C11.754655,7.38999227 11.9375123,7.30533189 11.9870362,7.44240108 C12.0236076,8.34141374 11.6297025,9.16705406 11.4178928,10.0184956 C11.400369,10.0862239 11.3790356,10.1539523 11.3546546,10.2192617 C11.0605591,11.0158756 10.7893208,11.8342593 10.6636063,12.6808632 C10.617892,12.7897122 10.5912253,12.9195248 10.5013205,12.9985412 C10.4190347,12.9961223 10.3375108,12.9856405 10.2559869,12.9767714 C10.2087488,13.0904582 10.1569392,13.204145 10.0632248,13.2839676 C10.054082,13.1718934 10.0464629,13.0598192 10.0403677,12.9477449 C9.98322475,12.959033 9.86893892,12.9816091 9.81255792,12.9937034 C9.82170078,12.8130946 9.83389127,12.6332921 9.83084365,12.4526833 C9.8239865,12.2938443 9.76074834,12.1495185 9.70055781,12.0076115 C9.53751004,11.6351058 9.41103372,11.2456681 9.23350975,10.8796127 C9.04989052,11.3166215 8.83579508,11.7479864 8.74817595,12.2212782 L8.74589023,12.2309537 C8.61865202,12.4946103 8.52417574,12.7719739 8.43655661,13.0517563 C8.27808026,12.9348443 8.13331822,13.0598192 7.99465142,13.137223 C7.86512749,12.9751588 7.73179403,12.7985814 7.71274639,12.5792707 C7.6723654,12.1229109 7.62055583,11.6238178 7.32265078,11.265019 L7.32036507,11.2327674 C7.27388883,10.5619347 6.96074568,9.95399249 6.70626924,9.35008175 C6.57674531,9.05336726 6.6590311,8.67763641 6.44112613,8.42365525 L6.4220785,8.39543513 C6.4921738,8.17048039 6.49445952,7.90037345 6.6308406,7.70928287 C7.0194124,7.50609794 7.0194124,8.30029298 7.38512703,8.06727535 C7.46055568,8.09065774 7.53446051,8.11887787 7.60684153,8.15193573 C7.62436536,8.44542507 7.76227025,8.70585654 7.852937,8.97757606 C8.01065144,9.42748553 8.18741351,9.86771953 8.35579462,10.3127913 C8.68036636,9.79031575 8.91350944,9.21381884 9.17560493,8.65586659 C9.20989068,8.55427413 9.32950984,8.57281879 9.40570039,8.60023263 C9.46817664,8.72923893 9.50017667,8.87033957 9.53827194,9.00902134 C9.59084342,9.00095845 9.69674828,8.98483266 9.74931976,8.97676977 C9.7683674,9.26784023 9.68379589,9.56697359 9.77217693,9.85159374 C9.82779603,10.041878 9.91693897,10.2192617 10.013701,10.3893888 C10.3009393,9.78709059 10.4830347,9.13560877 10.7626541,8.52847287 C10.8373208,8.37689047 10.8563684,8.2003131 10.9363685,8.05195585 C11.0407496,7.97535836 11.1611306,7.92859358 11.2777022,7.87699106 C11.2906546,7.99470931 11.3020831,8.11323384 11.3127498,8.23175838 C11.4498928,7.9495571 11.5276072,7.64074827 11.649512,7.35129038 M13.2716088,7.3786881 C13.3531327,7.32789187 13.4354185,7.20452959 13.5352281,7.294834 C13.4689424,7.67782145 13.5984663,8.0688718 13.850657,8.34946051 C13.8834189,8.73567312 14.1691335,9.03077503 14.3215146,9.37183544 C14.5211338,9.06786434 14.721515,8.76389325 14.9089437,8.45185926 C15.0361819,8.27528188 14.8144674,8.10273596 14.8388484,7.91890198 C14.9858962,7.80199002 15.0422772,8.03420136 15.1222773,8.11805545 C15.2746584,7.94147808 15.3798013,7.67701517 15.6121825,7.60444912 C15.7980874,7.59638623 15.9756114,7.68507806 16.1638021,7.68265919 C16.1348497,8.18578376 16.309326,8.65262531 16.4175166,9.13317378 C16.5714215,10.3418016 17.0209457,11.4867325 17.4681843,12.5953804 L17.4514223,12.6227942 C17.308946,12.7945338 17.139803,12.9477288 16.9211361,12.9888496 C16.7824693,12.8920949 16.623993,12.8348483 16.4601833,12.8066282 C16.4578976,12.8501678 16.4518023,12.9372471 16.4487547,12.9807867 L16.4441833,13.0614156 C16.3725642,13.0146508 16.2514212,13.0202949 16.2262783,12.9162835 C16.0639924,12.5268458 15.9893257,12.0970935 15.7630398,11.7382948 C15.7348493,11.6762105 15.7112302,11.6125136 15.6929445,11.5472042 C15.5009443,10.9497437 15.3737061,10.3305135 15.1702773,9.73708452 C15.1390392,9.64919898 15.1078011,9.56131344 15.0864677,9.47020274 L15.068182,9.38473607 C14.9211342,9.64919898 14.7474198,9.8983424 14.6262768,10.1781248 C14.6377054,10.2111827 14.6620863,10.2772984 14.6742768,10.3103563 C14.7123721,10.3676028 14.7900865,10.4820959 14.8281817,10.5393425 C14.7596102,10.6409349 14.6681816,10.6506104 14.5546577,10.5683689 L14.5546577,10.7852607 C14.2719907,10.7965488 14.0198,10.6868934 13.7988474,10.510316 C13.7904665,10.3796972 13.7988474,10.2474657 13.778276,10.1184594 C13.5885615,9.82335749 13.3455137,9.57260149 13.1260849,9.30249455 C12.9356085,10.0716946 12.7116083,10.8336381 12.5904653,11.6197702 C12.5279891,11.9793753 12.4144652,12.3252734 12.3154174,12.6743967 C12.2620841,12.6792345 12.1546554,12.6897162 12.101322,12.6953602 C12.1066553,12.730837 12.1165601,12.8025967 12.1218934,12.8380735 L12.1310363,12.9033829 C12.0792267,12.914671 11.9763695,12.9356345 11.9253218,12.9461162 C11.891798,13.0009439 11.8255122,13.1089867 11.7919884,13.1638144 C11.7698931,13.1009238 11.7257026,12.9751427 11.7036073,12.9122521 C11.6228454,12.9606295 11.5420834,13.0082005 11.4620833,13.0565779 C11.3439879,12.9348282 11.1954164,12.8638747 11.0399877,12.8163037 C11.0575115,12.5768357 11.1001782,12.3397866 11.1695116,12.1108004 C11.4140833,11.2561337 11.6152263,10.3869538 11.9047504,9.54680023 C12.1165601,8.88241778 12.391608,8.2438366 12.6590368,7.60364283 C12.8464656,7.48269943 13.0956087,7.52462647 13.2716088,7.3786881 M18.2575183,6.08138461 L18.276566,6.0442953 C18.4556138,5.97414813 18.6255187,6.09912298 18.7618998,6.20797205 C19.1001858,6.49823622 19.4529481,6.76995574 19.800377,7.04893187 C20.0312343,7.23760358 20.3169489,7.34322749 20.5241872,7.56576336 C20.7245683,7.78507407 20.9340923,7.99470931 21.1367592,8.21160115 C21.3447594,8.44461878 21.6419025,8.61232697 21.7211407,8.94613077 C21.6815216,8.96951316 21.6022834,9.01547166 21.5634263,9.03885405 C21.3699023,8.87437102 21.1801878,8.70585654 20.9866638,8.5413735 C20.7260921,8.30754958 20.3832347,8.23337096 20.0639963,8.13500366 L20.1310439,8.26562254 C20.7375207,9.53310944 21.3927594,10.782858 21.8491408,12.1221046 C22.3116174,13.1525424 22.5805701,14.2652218 23.0460943,15.2932407 C23.3005708,16.1535515 23.693714,16.9558094 24,17.7943504 L24,17.9209378 C23.774476,17.8733668 23.6563806,17.6330925 23.4910471,17.4871541 C23.0605705,16.9695164 22.50057,16.6050736 22.0304743,16.132588 C21.5192357,15.6222068 20.9401876,15.1948734 20.4441871,14.6675602 C20.1074249,14.3015048 19.663234,14.0838067 19.2784717,13.7830607 C19.2853288,13.680662 19.2944717,13.5790695 19.3043765,13.4766708 C19.5474243,13.5323047 19.7546626,13.6814683 19.9664723,13.8112809 C20.0883772,13.7564532 20.1996154,13.8161186 20.3055203,13.8798155 C20.4106632,13.8717526 20.5226634,13.8572394 20.6125682,13.9330306 C20.9638066,14.1636293 21.3028546,14.4168042 21.6510454,14.6522407 C21.702093,14.6877174 21.7523788,14.7240004 21.8034265,14.7594772 C21.7744741,14.3708457 21.6609502,13.9862457 21.4613309,13.6572796 C21.4438071,13.5960016 21.4255214,13.5355299 21.4072356,13.4750582 C21.049902,12.560726 20.638473,11.6697763 20.1927583,10.7989838 C20.1531392,10.8231724 20.0731391,10.8731624 20.03352,10.8981574 C19.8879961,10.8296228 19.7173293,10.7820517 19.6007577,10.9312152 C19.2799955,10.9376655 18.9653285,11.0070064 18.6559949,11.0940857 L18.7146616,11.2351863 C18.889138,11.7431486 19.0499,12.2632053 19.3257098,12.7219839 C19.3074241,12.7453663 19.2716145,12.7921311 19.2533288,12.8155135 C19.1329477,12.9138808 18.9874238,12.8074506 18.8556141,12.7921311 C18.8129474,12.8477651 18.7702807,12.903399 18.727614,12.959033 C18.6209473,12.9017865 18.5135186,12.8453462 18.4060899,12.7913248 C18.3626613,12.8622783 18.3184708,12.9332317 18.2750422,13.0041852 C18.139423,12.8751789 18.0045657,12.7397223 17.9108513,12.5720141 C17.9085656,12.5421814 17.9032323,12.4817097 17.9009466,12.451877 C17.8986609,11.9100505 17.727994,11.3916065 17.6281844,10.8650995 C17.526851,10.4506667 17.4514223,10.0241397 17.2777079,9.63389561 C17.0681839,9.15979746 16.9455171,8.65022257 16.7398026,8.17370555 C16.7504693,8.14951687 16.7702788,8.1011395 16.7801836,8.07695082 C16.8281836,8.10517095 16.9257075,8.15999863 16.9737076,8.18741247 C16.9904695,8.08985145 17.0163743,7.99390302 17.05066,7.90117974 C17.1740887,7.87215332 17.300565,7.86247785 17.4255175,7.84473948 C17.4498985,7.89472942 17.4978986,7.99470931 17.5215176,8.04389296 C17.6007558,7.98261496 17.6807559,7.92133697 17.760756,7.86005898 C17.8354227,7.98987157 17.8643751,8.22853322 18.0609467,8.15516089 C18.3268517,8.69618106 18.357328,9.32266791 18.5622805,9.88868305 C18.9904714,9.97011828 19.429329,9.92093463 19.8605675,9.89674595 C19.7439959,9.62986416 19.6297101,9.36217609 19.4971386,9.10416349 L19.4956148,9.10093833 C19.3379003,8.38898481 19.0392334,7.72057092 18.7420902,7.06344508 C18.7291378,6.99652306 18.7177093,6.93040733 18.7062807,6.86267902 C18.6590425,6.795757 18.6125663,6.72802869 18.5660901,6.6594941 L18.6971378,6.61031045 C18.5737091,6.47888528 18.4342804,6.36681105 18.2910422,6.26118715 C18.2826612,6.21603494 18.2658993,6.12653682 18.2575183,6.08138461 M4.98971904,9.10737252 C4.8320046,9.50245431 4.68038541,9.89995498 4.52190907,10.2942305 C4.4990519,10.3716343 4.43581375,10.4571009 4.49219475,10.535311 C4.77943312,10.4724204 5.07429055,10.4635513 5.36152892,10.3998544 L5.41714802,10.4458129 C5.29143361,9.99429083 5.16952873,9.53793105 4.98971904,9.10737252 M5.75467215,6.2700402 C5.89181514,6.16522258 5.99543428,5.95236219 6.1920059,6.00960873 L6.18514875,6.12329554 C6.05791053,6.26923391 5.90781515,6.39259619 5.79352933,6.5514352 C5.71429116,6.7562327 5.66019587,6.97473712 5.52229097,7.14889562 C5.58552913,7.45286672 5.37448131,7.69072208 5.3181003,7.97372966 L5.31124315,7.99146802 C5.36610035,7.99791834 5.47429093,8.01081897 5.52914812,8.01726928 C5.8179103,8.90821904 6.31314887,9.71934616 6.49905381,10.6465789 C6.59962533,10.6643173 6.70019686,10.682862 6.80076838,10.7022129 C6.74972071,10.8070305 6.67581588,10.8957224 6.59124437,10.9739324 C6.73600642,11.4617375 6.93257803,11.9318042 7.04991148,12.4284785 C7.09181628,12.5897363 7.18324494,12.7276118 7.25714977,12.8727439 C7.25410215,12.9122521 7.2480069,12.9896559 7.24572119,13.029164 C7.10019724,13.0219074 6.94857805,13.0856043 6.80686363,13.048515 C6.73067308,12.9574043 6.6781016,12.8485552 6.61943488,12.7453502 C6.61714916,12.9469225 6.50362524,13.1251125 6.28876789,13.0694785 C6.27276788,13.0573842 6.24152975,13.0331955 6.22552974,13.0202949 C6.21791068,13.0057817 6.20343448,12.9759489 6.19581542,12.9606295 C6.08610103,12.4566986 5.92762469,11.9656684 5.76838645,11.477057 C5.74019594,11.2916104 5.5398148,11.3351501 5.41257658,11.3230557 C5.01333811,11.3311186 4.61181392,11.298867 4.21486116,11.3416004 C4.12571821,11.4117476 4.09981343,11.5375287 4.05181338,11.6383149 C3.88267036,12.1003187 3.68228922,12.5518407 3.55809863,13.0307766 C3.54590814,13.0783477 3.53447956,13.1259188 3.52305097,13.1734898 C3.26628883,13.7620811 3.02476479,14.3587352 2.80076457,14.962646 C2.8746694,14.9086246 2.94857424,14.8537969 3.02171716,14.7989692 C3.43238422,14.4982233 3.80647982,14.1474874 4.19124209,13.812071 C4.28114693,13.7290232 4.38857561,13.6733893 4.50057571,13.6330748 C4.50819477,13.6741956 4.52343288,13.7548245 4.53105193,13.7959452 C4.35505177,13.9547843 4.12724203,14.0725025 4.03124193,14.307939 L4.18438494,14.2498862 C4.19048018,14.3409969 4.19733733,14.4313013 4.20343257,14.522412 C3.88267036,14.7384975 3.5405748,14.9328133 3.29524123,15.2504913 L3.24647928,15.2198523 C3.25486024,15.2279152 3.27314597,15.2456535 3.28152693,15.2545227 L3.24114594,15.2867743 C2.86705035,15.5649441 2.57905008,15.9543819 2.18590684,16.2067505 C1.64495395,16.5897379 1.16190587,17.0509355 0.688762561,17.5210022 C0.550857667,17.6733909 0.44571471,17.86045 0.283428841,17.9862311 C0.164571585,18.0394462 0.0838096036,17.9257594 0,17.86045 L0,17.7298311 C0.310857439,16.9944952 0.743619756,16.3285002 1.08495341,15.6109026 C1.59238247,14.5732082 1.96723997,13.469398 2.46781187,12.4284785 C2.54857386,12.2639954 2.6240025,12.095481 2.69866924,11.9269665 C2.59428819,12.0293652 2.50438334,12.1865916 2.33600222,12.1446646 C2.39314514,11.9608306 2.49066904,11.7963476 2.58666913,11.6326708 C3.09028866,10.7683286 3.60228915,9.90882416 4.10895629,9.04690082 C4.2072421,8.87112973 4.3184803,8.69293978 4.33295651,8.48249825 C4.30324219,8.49701146 4.24533738,8.52603788 4.21638497,8.5397448 C3.36609844,8.83000897 2.84190747,9.66774364 2.10362105,10.150711 C2.06781149,10.1628053 1.99619238,10.1878003 1.96038282,10.1998946 C1.95504948,10.1571613 1.94285899,10.0716946 1.93752565,10.0289613 C2.00381143,9.94591347 2.07314483,9.86528453 2.14171633,9.78384931 C2.16304968,9.68145056 2.1379068,9.55486312 2.21943069,9.47584676 C2.60724058,9.04367566 3.08114579,8.71309701 3.49486047,8.30995233 C4.22552783,7.60283654 4.93562375,6.86024403 5.75467215,6.2700402"></path>
                    </g>
                </g>
            </g>
        </g>
    </g>
</svg>